<?xml version="1.0" encoding="UTF-8"?>
<svg version="1.1" xmlns="http://www.w3.org/2000/svg" width="512" height="512">
<path d="M0 0 C0.75845215 0.19867676 1.5169043 0.39735352 2.29833984 0.60205078 C40.00940934 10.84087075 71.39261047 35.10966403 90.8125 69 C97.09499395 80.33682084 101.72382795 92.46318161 105 105 C105.45052734 106.68029297 105.45052734 106.68029297 105.91015625 108.39453125 C110.71795422 130.10788861 109.88538093 155.6460061 104 177 C103.82339844 177.66370605 103.64679688 178.32741211 103.46484375 179.01123047 C96.50664752 204.37643285 81.88237658 225.36854433 63.53125 243.83984375 C62.65206909 244.72805313 61.77288818 245.61626251 60.86706543 246.53138733 C59.01758625 248.39526503 57.16537768 250.25643811 55.31054688 252.11499023 C52.52227013 254.91513508 49.7532553 257.73342582 46.984375 260.55273438 C32.1677836 275.50468768 17.24642795 287.39519364 -2 296 C-3.175625 296.54269531 -4.35125 297.08539063 -5.5625 297.64453125 C-38.36599185 311.85218397 -74.3654296 310.67029485 -108 300.5 C-109.23882935 300.15062378 -109.23882935 300.15062378 -110.50268555 299.79418945 C-113 299 -113 299 -115.41333008 297.85229492 C-120.06988764 295.9130682 -123.44208312 295.59880614 -128.17333984 297.32275391 C-133.13781583 299.39850572 -137.90627669 301.85071836 -142.6875 304.3125 C-144.33115555 305.1287327 -145.97633265 305.9419089 -147.62304688 306.75195312 C-151.51686178 308.67635623 -155.39791745 310.62085916 -159.24557495 312.63619995 C-161.28747526 313.64720722 -163.37282586 314.57144737 -165.47634888 315.447052 C-178.43823828 321.01712507 -187.43370695 330.19444881 -197.28125 340.078125 C-199.07356004 341.85485371 -200.8667485 343.63069668 -202.6607666 345.40570068 C-206.39217932 349.1074567 -210.10796275 352.82408108 -213.81396484 356.55126953 C-218.08319804 360.84477392 -222.38812036 365.09997877 -226.71168375 369.33870816 C-230.90006001 373.44793883 -235.0543528 377.59023338 -239.1962738 381.74623871 C-240.95075463 383.49867185 -242.71466044 385.24172318 -244.48817444 386.97489166 C-246.9613425 389.39857171 -249.3931489 391.85755752 -251.81835938 394.32910156 C-252.55063248 395.03079971 -253.28290558 395.73249786 -254.03736877 396.45545959 C-256.98534656 399.52905881 -258.85769533 401.59876458 -259.2973175 405.92760468 C-259.23188633 407.99711265 -259.13826769 410.06592877 -259.01597786 412.13285637 C-258.97621415 419.26824642 -263.57417609 424.03331134 -268.33657837 428.87869263 C-269.03584442 429.56986176 -269.73511047 430.26103088 -270.45556641 430.97314453 C-271.20086609 431.72545349 -271.94616577 432.47776245 -272.71405029 433.25286865 C-275.16662777 435.72296837 -277.63345013 438.17824238 -280.1015625 440.6328125 C-281.82125333 442.35520043 -283.54035021 444.07818155 -285.25888062 445.80172729 C-288.85866535 449.40739983 -292.46556019 453.00576352 -296.07763672 456.59912109 C-300.69097164 461.1897022 -305.28616056 465.79796176 -309.87612343 470.41189766 C-313.42235667 473.97263716 -316.97812689 477.52373025 -320.53678513 481.07204819 C-322.23406409 482.76667145 -323.92841172 484.46423619 -325.6196785 486.16485977 C-327.99288593 488.54830781 -330.37868661 490.91842341 -332.76806641 493.28564453 C-333.45518707 493.98086212 -334.14230774 494.67607971 -334.85025024 495.3923645 C-344.76658027 505.14031536 -354.7835344 509.42225496 -368.57592773 509.36572266 C-379.19222257 509.11484436 -387.18878311 504.71705366 -394.6875 497.33984375 C-403.07038773 488.13962446 -404.57313761 478.73120484 -404.33203125 466.625 C-403.42158307 448.22120806 -385.4651146 435.29134818 -373.36328125 423.16015625 C-372.17882951 421.97146344 -372.17882951 421.97146344 -370.97044945 420.75875664 C-366.80354537 416.57695886 -362.63385054 412.39796873 -358.46166992 408.22143555 C-354.16101923 403.91526937 -349.86974893 399.59987853 -345.58053303 395.2823267 C-342.26813437 391.95131284 -338.94905503 388.62701762 -335.62810326 385.304533 C-334.04240977 383.71581736 -332.45921237 382.12460623 -330.87859535 380.53083992 C-328.67258456 378.30776925 -326.45729831 376.0943613 -324.23950195 373.88305664 C-323.5926091 373.22694901 -322.94571625 372.57084137 -322.27922058 371.89485168 C-318.78546875 368.43302445 -315.66770571 365.81179036 -311 364 C-308.03393555 364.14428711 -308.03393555 364.14428711 -304.94921875 364.58984375 C-299.54775955 364.71802958 -296.87700479 363.69428647 -292.97952271 360.19326782 C-290.15516304 357.40427478 -287.47208521 354.50793404 -284.8125 351.5625 C-283.68744139 350.36352888 -282.55920462 349.16753171 -281.42773438 347.97460938 C-279.84147847 346.30157595 -278.2613012 344.62570569 -276.70478821 342.92494202 C-273.20208162 339.10104081 -273.20208162 339.10104081 -271 338 C-268.66705225 337.95758277 -266.33297433 337.95907063 -264 338 C-259.83592609 338 -258.73248357 336.3290987 -255.75 333.5 C-252.22799735 330.13505971 -252.22799735 330.13505971 -250.67578125 325.73046875 C-251.04041294 323.80418214 -251.51693669 321.900049 -252 320 C-249.89146008 315.13949048 -246.04448495 312.12358665 -242.15625 308.69921875 C-221.65667778 290.03223183 -208.99740354 272.00379876 -198.74755859 246.27124023 C-196.74567741 241.27576833 -194.39392829 236.48107964 -191.96459961 231.67895508 C-190.1523169 226.64575381 -192.13690948 222.7727319 -194 218 C-207.30127271 178.51757205 -206.46415433 137.83376114 -188.08251953 100.14599609 C-182.38921561 88.85954109 -175.37104937 79.42377225 -167 70 C-166.0916007 68.90911481 -165.18657634 67.8154093 -164.28515625 66.71875 C-160.95836606 62.7607227 -160.95836606 62.7607227 -158 62 C-156.77925781 62.27328125 -155.55851563 62.5465625 -154.30078125 62.828125 C-151.74466193 63.16896022 -150.43544069 63.22650191 -148.12963867 62.02709961 C-146.26856594 60.5192345 -144.6382875 58.93475178 -143 57.1875 C-142.42185547 56.59453125 -141.84371094 56.0015625 -141.24804688 55.390625 C-138.74178754 52.63877001 -137.16986946 50.75531241 -136.34375 47.08203125 C-136.46350782 44.51908312 -136.46350782 44.51908312 -136.84765625 42.07421875 C-137 40 -137 40 -134.9375 37.3125 C-133.4834375 36.1678125 -133.4834375 36.1678125 -132 35 C-131.05868231 33.96178196 -130.12159978 32.91971685 -129.1875 31.875 C-97.36037571 0.32165742 -42.69981024 -11.2644913 0 0 Z M-53 53 C-52.6069165 53.47937012 -52.21383301 53.95874023 -51.80883789 54.45263672 C-50.40246582 56.16772461 -50.40246582 56.16772461 -48.99609375 57.8828125 C-46.20864721 60.83936049 -43.11768819 63.39985777 -40 66 C-37.66265901 63.69152056 -35.33081534 61.37756659 -33 59.0625 C-32.33226562 58.40314453 -31.66453125 57.74378906 -30.9765625 57.06445312 C-30.34492188 56.43603516 -29.71328125 55.80761719 -29.0625 55.16015625 C-28.47597656 54.57886963 -27.88945312 53.99758301 -27.28515625 53.39868164 C-25.88723477 52.19384972 -25.88723477 52.19384972 -26 51 C-29.00024947 50.94555999 -31.99949039 50.9061164 -35 50.875 C-35.83917969 50.85824219 -36.67835938 50.84148438 -37.54296875 50.82421875 C-43.05254877 50.78150883 -47.71048292 51.44497993 -53 53 Z M-7 55 C-14.26 62.26 -21.52 69.52 -29 77 C-24.08840687 82.75439866 -24.08840687 82.75439866 -18.9140625 88.18359375 C-18.21152344 88.88291016 -17.50898438 89.58222656 -16.78515625 90.30273438 C-16.07230469 91.00720703 -15.35945313 91.71167969 -14.625 92.4375 C-13.52091797 93.53481445 -13.52091797 93.53481445 -12.39453125 94.65429688 C-10.59863926 96.43852723 -8.80044015 98.22036124 -7 100 C-0.44622903 94.61359076 5.47246635 88.64114873 11.4375 82.625 C12.46525983 81.59221405 13.49325285 80.55966009 14.52148438 79.52734375 C17.01701598 77.02089713 19.50938082 74.5113292 22 72 C13.38751066 63.25137314 4.72974783 59.51144147 -7 55 Z M-97.61328125 77.48364258 C-99.76101129 79.63796288 -101.88545604 81.81309522 -104 84 C-99.47008204 89.43733055 -94.65705784 94.46458931 -89.625 99.4375 C-88.52091797 100.53481445 -88.52091797 100.53481445 -87.39453125 101.65429688 C-85.59863926 103.43852723 -83.80044015 105.22036124 -82 107 C-75.25919575 101.47349666 -69.1928871 95.30550441 -63.0625 89.125 C-61.98656273 88.04403726 -60.91039269 86.96330617 -59.83398438 85.8828125 C-57.21996708 83.25787359 -54.60911404 80.62981372 -52 78 C-55.90789296 73.33340307 -59.94892594 68.86897742 -64.25 64.5625 C-64.77851563 64.02173828 -65.30703125 63.48097656 -65.8515625 62.92382812 C-67.19490127 61.57537512 -68.59341891 60.28234713 -70 59 C-79.91115928 59 -91.00376434 70.94419492 -97.61328125 77.48364258 Z M33 83 C23.76 92.24 14.52 101.48 5 111 C9.91159313 116.75439866 9.91159313 116.75439866 15.0859375 122.18359375 C15.78847656 122.88291016 16.49101562 123.58222656 17.21484375 124.30273438 C17.92769531 125.00720703 18.64054687 125.71167969 19.375 126.4375 C20.47908203 127.53481445 20.47908203 127.53481445 21.60546875 128.65429688 C23.40136074 130.43852723 25.19955985 132.22036124 27 134 C32.43733055 129.47008204 37.46458931 124.65705784 42.4375 119.625 C43.16904297 118.88894531 43.90058594 118.15289062 44.65429688 117.39453125 C46.43852723 115.59863926 48.22036124 113.80044015 50 112 C47.53239147 104.53517419 44.62420907 97.9070237 40.375 91.3125 C39.99093994 90.7129248 39.60687988 90.11334961 39.21118164 89.49560547 C37.31496878 86.63956084 35.89163496 84.92775664 33 83 Z M-43.77563477 91.66210938 C-45.00012665 92.88676057 -46.22184708 94.11418652 -47.44140625 95.34375 C-48.08367661 95.9874353 -48.72594696 96.63112061 -49.38768005 97.29431152 C-51.44830012 99.36055079 -53.50542525 101.43023169 -55.5625 103.5 C-56.95485012 104.89736264 -58.34742525 106.29450111 -59.74023438 107.69140625 C-63.16277738 111.12500373 -66.58218882 114.56169268 -70 118 C-66.7498913 121.8488174 -63.49349707 125.63349881 -59.9140625 129.18359375 C-59.21152344 129.88291016 -58.50898438 130.58222656 -57.78515625 131.30273438 C-57.07230469 132.00720703 -56.35945313 132.71167969 -55.625 133.4375 C-54.52091797 134.53481445 -54.52091797 134.53481445 -53.39453125 135.65429688 C-51.59863926 137.43852723 -49.80044015 139.22036124 -48 141 C-41.25919575 135.47349666 -35.1928871 129.30550441 -29.0625 123.125 C-27.98656273 122.04403726 -26.91039269 120.96330617 -25.83398438 119.8828125 C-23.21996708 117.25787359 -20.60911404 114.62981372 -18 112 C-22.52216046 106.58052896 -27.30918427 101.53850008 -32.3125 96.5625 C-33.04017578 95.83095703 -33.76785156 95.09941406 -34.51757812 94.34570312 C-35.20916016 93.65541016 -35.90074219 92.96511719 -36.61328125 92.25390625 C-37.24016846 91.62814697 -37.86705566 91.0023877 -38.51293945 90.35766602 C-41.13838554 87.96066952 -40.90433832 88.90825095 -43.77563477 91.66210938 Z M-122.125 101.875 C-130.50613093 110.26183704 -135.63934993 118.27869985 -141 129 C-135.06 134.94 -129.12 140.88 -123 147 C-118.8274869 144.91374345 -116.13262639 142.38841113 -112.921875 139.1171875 C-112.35043762 138.54292023 -111.77900024 137.96865295 -111.19024658 137.37698364 C-109.37207055 135.5476419 -107.56098508 133.71145807 -105.75 131.875 C-104.51608671 130.63105226 -103.28171678 129.3875573 -102.046875 128.14453125 C-99.02593257 125.10157633 -96.01132908 122.05246746 -93 119 C-97.52216046 113.58052896 -102.30918427 108.53850008 -107.3125 103.5625 C-108.04017578 102.83095703 -108.76785156 102.09941406 -109.51757812 101.34570312 C-110.20916016 100.65541016 -110.90074219 99.96511719 -111.61328125 99.25390625 C-112.24016846 98.62814697 -112.86705566 98.0023877 -113.51293945 97.35766602 C-116.95889894 94.21155196 -119.57688236 99.33918701 -122.125 101.875 Z M-9.77563477 125.66210938 C-11.00012665 126.88676057 -12.22184708 128.11418652 -13.44140625 129.34375 C-14.08367661 129.9874353 -14.72594696 130.63112061 -15.38768005 131.29431152 C-17.44830012 133.36055079 -19.50542525 135.43023169 -21.5625 137.5 C-22.95485012 138.89736264 -24.34742525 140.29450111 -25.74023438 141.69140625 C-29.16277738 145.12500373 -32.58218882 148.56169268 -36 152 C-32.7498913 155.8488174 -29.49349707 159.63349881 -25.9140625 163.18359375 C-25.21152344 163.88291016 -24.50898438 164.58222656 -23.78515625 165.30273438 C-23.07230469 166.00720703 -22.35945313 166.71167969 -21.625 167.4375 C-20.52091797 168.53481445 -20.52091797 168.53481445 -19.39453125 169.65429688 C-17.59863926 171.43852723 -15.80044015 173.22036124 -14 175 C-7.25919575 169.47349666 -1.1928871 163.30550441 4.9375 157.125 C6.01343727 156.04403726 7.08960731 154.96330617 8.16601562 153.8828125 C10.78003292 151.25787359 13.39088596 148.62981372 16 146 C11.47783954 140.58052896 6.69081573 135.53850008 1.6875 130.5625 C0.95982422 129.83095703 0.23214844 129.09941406 -0.51757812 128.34570312 C-1.20916016 127.65541016 -1.90074219 126.96511719 -2.61328125 126.25390625 C-3.24016846 125.62814697 -3.86705566 125.0023877 -4.51293945 124.35766602 C-7.13838554 121.96066952 -6.90433832 122.90825095 -9.77563477 125.66210938 Z M-84.68383789 132.5703125 C-85.86601217 133.75264608 -87.04541539 134.93775415 -88.22265625 136.125 C-88.84273056 136.74648926 -89.46280487 137.36797852 -90.10166931 138.00830078 C-92.09096015 140.0032106 -94.07675501 142.00156118 -96.0625 144 C-97.40667301 145.34918556 -98.75107106 146.69814695 -100.09570312 148.046875 C-103.39975707 151.36198312 -106.70067866 154.68018206 -110 158 C-108.48623919 161.56764285 -106.39486871 163.83706287 -103.6484375 166.546875 C-102.79765625 167.39121094 -101.946875 168.23554688 -101.0703125 169.10546875 C-100.18085938 169.97816406 -99.29140625 170.85085937 -98.375 171.75 C-97.4778125 172.63816406 -96.580625 173.52632812 -95.65625 174.44140625 C-93.44192996 176.63216969 -91.22307565 178.81812763 -89 181 C-84.80374091 179.36221955 -82.01323215 176.26676818 -78.921875 173.1171875 C-78.35043762 172.54292023 -77.77900024 171.96865295 -77.19024658 171.37698364 C-75.37207055 169.5476419 -73.56098508 167.71145807 -71.75 165.875 C-70.51608671 164.63105226 -69.28171678 163.3875573 -68.046875 162.14453125 C-65.02593257 159.10157633 -62.01132908 156.05246746 -59 153 C-63.52216046 147.58052896 -68.30918427 142.53850008 -73.3125 137.5625 C-74.04017578 136.83095703 -74.76785156 136.09941406 -75.51757812 135.34570312 C-76.20916016 134.65541016 -76.90074219 133.96511719 -77.61328125 133.25390625 C-78.24016846 132.62814697 -78.86705566 132.0023877 -79.51293945 131.35766602 C-82.10068944 128.99508554 -81.87251473 129.87790731 -84.68383789 132.5703125 Z M51.60131836 132.28515625 C51.02003174 132.87167969 50.43874512 133.45820313 49.83984375 134.0625 C48.8972168 135.00996094 48.8972168 135.00996094 47.93554688 135.9765625 C46.94651367 136.97816406 46.94651367 136.97816406 45.9375 138 C45.27427734 138.66773438 44.61105469 139.33546875 43.92773438 140.0234375 C42.28291286 141.68009226 40.64046113 143.33902916 39 145 C43.60912364 150.53745973 43.60912364 150.53745973 48.875 155.4375 C49.47054688 155.93121094 50.06609375 156.42492187 50.6796875 156.93359375 C51.33324219 157.46146484 51.33324219 157.46146484 52 158 C54.641513 149.08489362 54.17875809 140.20604186 54 131 C52.80615028 130.88723477 52.80615028 130.88723477 51.60131836 132.28515625 Z M-147 146 C-148.90427108 155.13029973 -149.22823248 163.71854592 -149 173 C-144.92623969 171.38989473 -142.23492931 168.46177729 -139.25 165.375 C-138.74339844 164.859375 -138.23679687 164.34375 -137.71484375 163.8125 C-136.47196098 162.54616661 -135.23534724 161.2736856 -134 160 C-135.58620127 156.12060491 -138.09920987 153.66638913 -141.0625 150.75 C-141.96097656 149.85796875 -142.85945313 148.9659375 -143.78515625 148.046875 C-145.61976269 145.88688161 -145.61976269 145.88688161 -147 146 Z M24.22436523 159.66210938 C22.99987335 160.88676057 21.77815292 162.11418652 20.55859375 163.34375 C19.91632339 163.9874353 19.27405304 164.63112061 18.61231995 165.29431152 C16.55169988 167.36055079 14.49457475 169.43023169 12.4375 171.5 C11.04514988 172.89736264 9.65257475 174.29450111 8.25976562 175.69140625 C4.83722262 179.12500373 1.41781118 182.56169268 -2 186 C1.2501087 189.8488174 4.50650293 193.63349881 8.0859375 197.18359375 C8.78847656 197.88291016 9.49101562 198.58222656 10.21484375 199.30273438 C10.92769531 200.00720703 11.64054687 200.71167969 12.375 201.4375 C13.47908203 202.53481445 13.47908203 202.53481445 14.60546875 203.65429688 C16.40136074 205.43852723 18.19955985 207.22036124 20 209 C28.25370143 201.97691286 35.08660172 195.17066021 41 186 C41.53496094 185.175 42.06992187 184.35 42.62109375 183.5 C43.33458984 182.324375 43.33458984 182.324375 44.0625 181.125 C44.69865234 180.07699219 44.69865234 180.07699219 45.34765625 179.0078125 C46.23127835 177.00797464 46.23127835 177.00797464 45.26953125 175.11767578 C43.85638172 172.76043366 42.28881049 171.04608711 40.33984375 169.109375 C39.62892578 168.40039062 38.91800781 167.69140625 38.18554688 166.9609375 C37.44369141 166.23132813 36.70183594 165.50171875 35.9375 164.75 C35.19177734 164.00492188 34.44605469 163.25984375 33.67773438 162.4921875 C29.26905414 156.85654841 29.26905414 156.85654841 24.22436523 159.66210938 Z M-50.68383789 166.5703125 C-51.86601217 167.75264608 -53.04541539 168.93775415 -54.22265625 170.125 C-54.84273056 170.74648926 -55.46280487 171.36797852 -56.10166931 172.00830078 C-58.09096015 174.0032106 -60.07675501 176.00156118 -62.0625 178 C-63.40667301 179.34918556 -64.75107106 180.69814695 -66.09570312 182.046875 C-69.39975707 185.36198312 -72.70067866 188.68018206 -76 192 C-74.48623919 195.56764285 -72.39486871 197.83706287 -69.6484375 200.546875 C-68.79765625 201.39121094 -67.946875 202.23554688 -67.0703125 203.10546875 C-66.18085938 203.97816406 -65.29140625 204.85085937 -64.375 205.75 C-63.4778125 206.63816406 -62.580625 207.52632812 -61.65625 208.44140625 C-59.44192996 210.63216969 -57.22307565 212.81812763 -55 215 C-50.80374091 213.36221955 -48.01323215 210.26676818 -44.921875 207.1171875 C-44.35043762 206.54292023 -43.77900024 205.96865295 -43.19024658 205.37698364 C-41.37207055 203.5476419 -39.56098508 201.71145807 -37.75 199.875 C-36.51608671 198.63105226 -35.28171678 197.3875573 -34.046875 196.14453125 C-31.02593257 193.10157633 -28.01132908 190.05246746 -25 187 C-29.52216046 181.58052896 -34.30918427 176.53850008 -39.3125 171.5625 C-40.04017578 170.83095703 -40.76785156 170.09941406 -41.51757812 169.34570312 C-42.20916016 168.65541016 -42.90074219 167.96511719 -43.61328125 167.25390625 C-44.24016846 166.62814697 -44.86705566 166.0023877 -45.51293945 165.35766602 C-48.10068944 162.99508554 -47.87251473 163.87790731 -50.68383789 166.5703125 Z M-132.23291016 179.4777832 C-133.24004227 180.44682777 -134.25864662 181.4040957 -135.28857422 182.34887695 C-141.3224866 187.48857417 -141.3224866 187.48857417 -144.32739258 194.44921875 C-143.85157577 196.88606389 -143.11909815 198.78722583 -142 201 C-141.71141113 201.62672607 -141.42282227 202.25345215 -141.12548828 202.89916992 C-140.23422538 204.68777363 -139.21018016 206.40814879 -138.1875 208.125 C-137.83365234 208.72393066 -137.47980469 209.32286133 -137.11523438 209.93994141 C-134.61412677 214.12553815 -131.95355823 218.12345482 -129 222 C-122.44622903 216.61359076 -116.52753365 210.64114873 -110.5625 204.625 C-109.53474017 203.59221405 -108.50674715 202.55966009 -107.47851562 201.52734375 C-104.98298402 199.02089713 -102.49061918 196.5113292 -100 194 C-101.51031326 190.46183947 -103.57593356 188.16633853 -106.28125 185.453125 C-107.54388672 184.18662109 -107.54388672 184.18662109 -108.83203125 182.89453125 C-109.71246094 182.02183594 -110.59289062 181.14914063 -111.5 180.25 C-112.38042969 179.36183594 -113.26085937 178.47367188 -114.16796875 177.55859375 C-115.43060547 176.29982422 -115.43060547 176.29982422 -116.71875 175.015625 C-117.49154297 174.24508789 -118.26433594 173.47455078 -119.06054688 172.68066406 C-124.01636831 168.3861179 -128.62409716 175.97095071 -132.23291016 179.4777832 Z M-16.68383789 200.5703125 C-17.86601217 201.75264608 -19.04541539 202.93775415 -20.22265625 204.125 C-20.84273056 204.74648926 -21.46280487 205.36797852 -22.10166931 206.00830078 C-24.09096015 208.0032106 -26.07675501 210.00156118 -28.0625 212 C-29.40667301 213.34918556 -30.75107106 214.69814695 -32.09570312 216.046875 C-35.39975707 219.36198312 -38.70067866 222.68018206 -42 226 C-40.5735422 229.2586636 -38.83295838 231.4024854 -36.3046875 233.890625 C-35.58925781 234.59960938 -34.87382812 235.30859375 -34.13671875 236.0390625 C-33.39035156 236.76867187 -32.64398438 237.49828125 -31.875 238.25 C-31.12089844 238.99507812 -30.36679687 239.74015625 -29.58984375 240.5078125 C-27.73099228 242.3431342 -25.86762995 244.1736191 -24 246 C-10.95172812 239.74391308 -0.90024982 231.4264442 9 221 C4.47783954 215.58052896 -0.30918427 210.53850008 -5.3125 205.5625 C-6.04017578 204.83095703 -6.76785156 204.09941406 -7.51757812 203.34570312 C-8.20916016 202.65541016 -8.90074219 201.96511719 -9.61328125 201.25390625 C-10.24016846 200.62814697 -10.86705566 200.0023877 -11.51293945 199.35766602 C-14.10068944 196.99508554 -13.87251473 197.87790731 -16.68383789 200.5703125 Z M-91.79736328 207.5703125 C-92.97682229 208.75008943 -94.15076195 209.93539979 -95.3203125 211.125 C-95.93897186 211.74648926 -96.55763123 212.36797852 -97.19503784 213.00830078 C-99.17641731 215.00090523 -101.15074349 217.00034033 -103.125 219 C-104.46438602 220.34941282 -105.80422401 221.69837718 -107.14453125 223.046875 C-110.4349611 226.35939595 -113.71908006 229.67806068 -117 233 C-110.12259304 240.08592507 -99.72890044 246.72454815 -90 249 C-85.92809846 248.57953485 -84.02576408 246.37241339 -81.234375 243.52734375 C-80.34492188 242.62822266 -79.45546875 241.72910156 -78.5390625 240.80273438 C-77.61867188 239.85720703 -76.69828125 238.91167969 -75.75 237.9375 C-74.80538327 236.97783027 -73.86007805 236.01883771 -72.9140625 235.06054688 C-70.60250828 232.71361172 -68.2982366 230.35996609 -66 228 C-67.51031326 224.46183947 -69.57593356 222.16633853 -72.28125 219.453125 C-73.54388672 218.18662109 -73.54388672 218.18662109 -74.83203125 216.89453125 C-75.71246094 216.02183594 -76.59289062 215.14914063 -77.5 214.25 C-78.38042969 213.36183594 -79.26085937 212.47367188 -80.16796875 211.55859375 C-81.43060547 210.29982422 -81.43060547 210.29982422 -82.71875 209.015625 C-83.49154297 208.24508789 -84.26433594 207.47455078 -85.06054688 206.68066406 C-88.24838544 203.91819167 -88.67005997 204.69683988 -91.79736328 207.5703125 Z M-56.42041016 240.19335938 C-57.22164307 241.01030273 -57.22164307 241.01030273 -58.0390625 241.84375 C-58.61914062 242.43027344 -59.19921875 243.01679688 -59.796875 243.62109375 C-60.40015625 244.24113281 -61.0034375 244.86117187 -61.625 245.5 C-62.23601562 246.12003906 -62.84703125 246.74007812 -63.4765625 247.37890625 C-64.98887719 248.91485086 -66.49502114 250.45686675 -68 252 C-67.67 252.66 -67.34 253.32 -67 254 C-58.10747704 254.26197285 -49.75003718 253.6039348 -41 252 C-44.80014774 247.445213 -48.65665546 243.04720741 -53 239 C-55.05397977 238.78558001 -55.05397977 238.78558001 -56.42041016 240.19335938 Z " fill="#010101" transform="translate(404,3)"/>
<path d="M0 0 C21.04148405 16.25494798 35.98049646 39.67396853 40.43359375 66.1015625 C41.97322391 96.28997758 38.48578447 124.96336339 18.13427734 148.79394531 C10.75146624 156.79500712 3.16847719 164.58545309 -4.51879883 172.29418945 C-6.63630959 174.4215001 -8.74289015 176.55927421 -10.84960938 178.69726562 C-17.66789204 185.56832254 -24.28411981 191.98597492 -32.56640625 197.1015625 C-33.72052002 197.88273437 -33.72052002 197.88273437 -34.89794922 198.6796875 C-42.98560785 204.14021659 -52.37631203 207.04905113 -61.56640625 210.1015625 C-62.6234375 210.46765625 -63.68046875 210.83375 -64.76953125 211.2109375 C-88.48031963 218.07799643 -117.33118285 212.70660592 -138.69140625 201.28125 C-162.93843284 187.83060655 -180.75396015 166.62531742 -188.84765625 140.0390625 C-193.68454563 123.05822928 -194.85786983 103.34140755 -190.56640625 86.1015625 C-190.32148438 85.02519531 -190.0765625 83.94882813 -189.82421875 82.83984375 C-188.15263836 76.23488231 -185.86982739 70.13906463 -182.87890625 64.0390625 C-182.58870605 63.43932617 -182.29850586 62.83958984 -181.99951172 62.22167969 C-180.92799149 60.13179993 -179.7681629 58.1196354 -178.56640625 56.1015625 C-178.04884766 55.22282471 -177.53128906 54.34408691 -176.99804688 53.4387207 C-170.16121782 42.74286238 -161.16529032 34.06086608 -152.19433594 25.15307617 C-149.45243593 22.42503642 -146.73540545 19.67384384 -144.01953125 16.91992188 C-130.39725463 3.23710008 -116.76396318 -7.93845123 -98.56640625 -14.8984375 C-97.90318359 -15.1552832 -97.23996094 -15.41212891 -96.55664062 -15.67675781 C-64.68120078 -27.40053857 -26.77202927 -19.80396685 0 0 Z M-81.56640625 -2.8984375 C-81.17332275 -2.41906738 -80.78023926 -1.93969727 -80.37524414 -1.44580078 C-78.96887207 0.26928711 -78.96887207 0.26928711 -77.5625 1.984375 C-74.77505346 4.94092299 -71.68409444 7.50142027 -68.56640625 10.1015625 C-66.22906526 7.79308306 -63.89722159 5.47912909 -61.56640625 3.1640625 C-60.89867187 2.50470703 -60.2309375 1.84535156 -59.54296875 1.16601562 C-58.91132813 0.53759766 -58.2796875 -0.09082031 -57.62890625 -0.73828125 C-57.04238281 -1.31956787 -56.45585937 -1.90085449 -55.8515625 -2.49975586 C-54.45364102 -3.70458778 -54.45364102 -3.70458778 -54.56640625 -4.8984375 C-57.56665572 -4.95287751 -60.56589664 -4.9923211 -63.56640625 -5.0234375 C-64.40558594 -5.04019531 -65.24476563 -5.05695312 -66.109375 -5.07421875 C-71.61895502 -5.11692867 -76.27688917 -4.45345757 -81.56640625 -2.8984375 Z M-35.56640625 -0.8984375 C-42.82640625 6.3615625 -50.08640625 13.6215625 -57.56640625 21.1015625 C-52.65481312 26.85596116 -52.65481312 26.85596116 -47.48046875 32.28515625 C-46.77792969 32.98447266 -46.07539063 33.68378906 -45.3515625 34.40429688 C-44.63871094 35.10876953 -43.92585937 35.81324219 -43.19140625 36.5390625 C-42.08732422 37.63637695 -42.08732422 37.63637695 -40.9609375 38.75585938 C-39.16504551 40.54008973 -37.3668464 42.32192374 -35.56640625 44.1015625 C-29.01263528 38.71515326 -23.0939399 32.74271123 -17.12890625 26.7265625 C-16.10114642 25.69377655 -15.0731534 24.66122259 -14.04492188 23.62890625 C-11.54939027 21.12245963 -9.05702543 18.6128917 -6.56640625 16.1015625 C-15.17889559 7.35293564 -23.83665842 3.61300397 -35.56640625 -0.8984375 Z M-126.1796875 21.58520508 C-128.32741754 23.73952538 -130.45186229 25.91465772 -132.56640625 28.1015625 C-128.03648829 33.53889305 -123.22346409 38.56615181 -118.19140625 43.5390625 C-117.08732422 44.63637695 -117.08732422 44.63637695 -115.9609375 45.75585938 C-114.16504551 47.54008973 -112.3668464 49.32192374 -110.56640625 51.1015625 C-103.825602 45.57505916 -97.75929335 39.40706691 -91.62890625 33.2265625 C-90.55296898 32.14559976 -89.47679894 31.06486867 -88.40039062 29.984375 C-85.78637333 27.35943609 -83.17552029 24.73137622 -80.56640625 22.1015625 C-84.47429921 17.43496557 -88.51533219 12.97053992 -92.81640625 8.6640625 C-93.34492188 8.12330078 -93.8734375 7.58253906 -94.41796875 7.02539062 C-95.76130752 5.67693762 -97.15982516 4.38390963 -98.56640625 3.1015625 C-108.47756553 3.1015625 -119.57017059 15.04575742 -126.1796875 21.58520508 Z M4.43359375 27.1015625 C-4.80640625 36.3415625 -14.04640625 45.5815625 -23.56640625 55.1015625 C-18.65481312 60.85596116 -18.65481312 60.85596116 -13.48046875 66.28515625 C-12.77792969 66.98447266 -12.07539063 67.68378906 -11.3515625 68.40429688 C-10.63871094 69.10876953 -9.92585937 69.81324219 -9.19140625 70.5390625 C-8.08732422 71.63637695 -8.08732422 71.63637695 -6.9609375 72.75585938 C-5.16504551 74.54008973 -3.3668464 76.32192374 -1.56640625 78.1015625 C3.8709243 73.57164454 8.89818306 68.75862034 13.87109375 63.7265625 C14.60263672 62.99050781 15.33417969 62.25445312 16.08789062 61.49609375 C17.87212098 59.70020176 19.65395499 57.90200265 21.43359375 56.1015625 C18.96598522 48.63673669 16.05780282 42.0085862 11.80859375 35.4140625 C11.42453369 34.8144873 11.04047363 34.21491211 10.64477539 33.59716797 C8.74856253 30.74112334 7.32522871 29.02931914 4.43359375 27.1015625 Z M-72.34204102 35.76367188 C-73.5665329 36.98832307 -74.78825333 38.21574902 -76.0078125 39.4453125 C-76.65008286 40.0889978 -77.29235321 40.73268311 -77.9540863 41.39587402 C-80.01470637 43.46211329 -82.0718315 45.53179419 -84.12890625 47.6015625 C-85.52125637 48.99892514 -86.9138315 50.39606361 -88.30664062 51.79296875 C-91.72918363 55.22656623 -95.14859507 58.66325518 -98.56640625 62.1015625 C-95.31629755 65.9503799 -92.05990332 69.73506131 -88.48046875 73.28515625 C-87.77792969 73.98447266 -87.07539063 74.68378906 -86.3515625 75.40429688 C-85.63871094 76.10876953 -84.92585938 76.81324219 -84.19140625 77.5390625 C-83.08732422 78.63637695 -83.08732422 78.63637695 -81.9609375 79.75585938 C-80.16504551 81.54008973 -78.3668464 83.32192374 -76.56640625 85.1015625 C-69.825602 79.57505916 -63.75929335 73.40706691 -57.62890625 67.2265625 C-56.55296898 66.14559976 -55.47679894 65.06486867 -54.40039062 63.984375 C-51.78637333 61.35943609 -49.17552029 58.73137622 -46.56640625 56.1015625 C-51.08856671 50.68209146 -55.87559052 45.64006258 -60.87890625 40.6640625 C-61.60658203 39.93251953 -62.33425781 39.20097656 -63.08398438 38.44726562 C-63.77556641 37.75697266 -64.46714844 37.06667969 -65.1796875 36.35546875 C-65.80657471 35.72970947 -66.43346191 35.1039502 -67.0793457 34.45922852 C-69.70479179 32.06223202 -69.47074457 33.00981345 -72.34204102 35.76367188 Z M-150.69140625 45.9765625 C-159.07253718 54.36339954 -164.20575618 62.38026235 -169.56640625 73.1015625 C-163.62640625 79.0415625 -157.68640625 84.9815625 -151.56640625 91.1015625 C-147.39389315 89.01530595 -144.69903264 86.48997363 -141.48828125 83.21875 C-140.91684387 82.64448273 -140.34540649 82.07021545 -139.75665283 81.47854614 C-137.9384768 79.6492044 -136.12739133 77.81302057 -134.31640625 75.9765625 C-133.08249296 74.73261476 -131.84812303 73.4891198 -130.61328125 72.24609375 C-127.59233882 69.20313883 -124.57773533 66.15402996 -121.56640625 63.1015625 C-126.08856671 57.68209146 -130.87559052 52.64006258 -135.87890625 47.6640625 C-136.60658203 46.93251953 -137.33425781 46.20097656 -138.08398438 45.44726562 C-138.77556641 44.75697266 -139.46714844 44.06667969 -140.1796875 43.35546875 C-140.80657471 42.72970947 -141.43346191 42.1039502 -142.0793457 41.45922852 C-145.52530519 38.31311446 -148.14328861 43.44074951 -150.69140625 45.9765625 Z M-38.34204102 69.76367188 C-39.5665329 70.98832307 -40.78825333 72.21574902 -42.0078125 73.4453125 C-42.65008286 74.0889978 -43.29235321 74.73268311 -43.9540863 75.39587402 C-46.01470637 77.46211329 -48.0718315 79.53179419 -50.12890625 81.6015625 C-51.52125637 82.99892514 -52.9138315 84.39606361 -54.30664062 85.79296875 C-57.72918363 89.22656623 -61.14859507 92.66325518 -64.56640625 96.1015625 C-61.31629755 99.9503799 -58.05990332 103.73506131 -54.48046875 107.28515625 C-53.77792969 107.98447266 -53.07539063 108.68378906 -52.3515625 109.40429688 C-51.63871094 110.10876953 -50.92585937 110.81324219 -50.19140625 111.5390625 C-49.08732422 112.63637695 -49.08732422 112.63637695 -47.9609375 113.75585938 C-46.16504551 115.54008973 -44.3668464 117.32192374 -42.56640625 119.1015625 C-35.825602 113.57505916 -29.75929335 107.40706691 -23.62890625 101.2265625 C-22.55296898 100.14559976 -21.47679894 99.06486867 -20.40039062 97.984375 C-17.78637333 95.35943609 -15.17552029 92.73137622 -12.56640625 90.1015625 C-17.08856671 84.68209146 -21.87559052 79.64006258 -26.87890625 74.6640625 C-27.60658203 73.93251953 -28.33425781 73.20097656 -29.08398438 72.44726562 C-29.77556641 71.75697266 -30.46714844 71.06667969 -31.1796875 70.35546875 C-31.80657471 69.72970947 -32.43346191 69.1039502 -33.0793457 68.45922852 C-35.70479179 66.06223202 -35.47074457 67.00981345 -38.34204102 69.76367188 Z M-113.25024414 76.671875 C-114.43241842 77.85420858 -115.61182164 79.03931665 -116.7890625 80.2265625 C-117.40913681 80.84805176 -118.02921112 81.46954102 -118.66807556 82.10986328 C-120.6573664 84.1047731 -122.64316126 86.10312368 -124.62890625 88.1015625 C-125.97307926 89.45074806 -127.31747731 90.79970945 -128.66210938 92.1484375 C-131.96616332 95.46354562 -135.26708491 98.78174456 -138.56640625 102.1015625 C-137.05264544 105.66920535 -134.96127496 107.93862537 -132.21484375 110.6484375 C-131.3640625 111.49277344 -130.51328125 112.33710938 -129.63671875 113.20703125 C-128.74726563 114.07972656 -127.8578125 114.95242187 -126.94140625 115.8515625 C-126.04421875 116.73972656 -125.14703125 117.62789062 -124.22265625 118.54296875 C-122.00833621 120.73373219 -119.7894819 122.91969013 -117.56640625 125.1015625 C-113.37014716 123.46378205 -110.5796384 120.36833068 -107.48828125 117.21875 C-106.91684387 116.64448273 -106.34540649 116.07021545 -105.75665283 115.47854614 C-103.9384768 113.6492044 -102.12739133 111.81302057 -100.31640625 109.9765625 C-99.08249296 108.73261476 -97.84812303 107.4891198 -96.61328125 106.24609375 C-93.59233882 103.20313883 -90.57773533 100.15402996 -87.56640625 97.1015625 C-92.08856671 91.68209146 -96.87559052 86.64006258 -101.87890625 81.6640625 C-102.60658203 80.93251953 -103.33425781 80.20097656 -104.08398438 79.44726562 C-104.77556641 78.75697266 -105.46714844 78.06667969 -106.1796875 77.35546875 C-106.80657471 76.72970947 -107.43346191 76.1039502 -108.0793457 75.45922852 C-110.66709569 73.09664804 -110.43892098 73.97946981 -113.25024414 76.671875 Z M23.03491211 76.38671875 C22.45362549 76.97324219 21.87233887 77.55976563 21.2734375 78.1640625 C20.33081055 79.11152344 20.33081055 79.11152344 19.36914062 80.078125 C18.38010742 81.07972656 18.38010742 81.07972656 17.37109375 82.1015625 C16.70787109 82.76929688 16.04464844 83.43703125 15.36132812 84.125 C13.71650661 85.78165476 12.07405488 87.44059166 10.43359375 89.1015625 C15.04271739 94.63902223 15.04271739 94.63902223 20.30859375 99.5390625 C20.90414062 100.03277344 21.4996875 100.52648437 22.11328125 101.03515625 C22.76683594 101.56302734 22.76683594 101.56302734 23.43359375 102.1015625 C26.07510675 93.18645612 25.61235184 84.30760436 25.43359375 75.1015625 C24.23974403 74.98879727 24.23974403 74.98879727 23.03491211 76.38671875 Z M-175.56640625 90.1015625 C-177.47067733 99.23186223 -177.79463873 107.82010842 -177.56640625 117.1015625 C-173.49264594 115.49145723 -170.80133556 112.56333979 -167.81640625 109.4765625 C-167.30980469 108.9609375 -166.80320312 108.4453125 -166.28125 107.9140625 C-165.03836723 106.64772911 -163.80175349 105.3752481 -162.56640625 104.1015625 C-164.15260752 100.22216741 -166.66561612 97.76795163 -169.62890625 94.8515625 C-170.52738281 93.95953125 -171.42585938 93.0675 -172.3515625 92.1484375 C-174.18616894 89.98844411 -174.18616894 89.98844411 -175.56640625 90.1015625 Z M-4.34204102 103.76367188 C-5.5665329 104.98832307 -6.78825333 106.21574902 -8.0078125 107.4453125 C-8.65008286 108.0889978 -9.29235321 108.73268311 -9.9540863 109.39587402 C-12.01470637 111.46211329 -14.0718315 113.53179419 -16.12890625 115.6015625 C-17.52125637 116.99892514 -18.9138315 118.39606361 -20.30664062 119.79296875 C-23.72918363 123.22656623 -27.14859507 126.66325518 -30.56640625 130.1015625 C-27.31629755 133.9503799 -24.05990332 137.73506131 -20.48046875 141.28515625 C-19.77792969 141.98447266 -19.07539063 142.68378906 -18.3515625 143.40429688 C-17.63871094 144.10876953 -16.92585937 144.81324219 -16.19140625 145.5390625 C-15.08732422 146.63637695 -15.08732422 146.63637695 -13.9609375 147.75585938 C-12.16504551 149.54008973 -10.3668464 151.32192374 -8.56640625 153.1015625 C-0.31270482 146.07847536 6.52019547 139.27222271 12.43359375 130.1015625 C12.96855469 129.2765625 13.50351562 128.4515625 14.0546875 127.6015625 C14.76818359 126.4259375 14.76818359 126.4259375 15.49609375 125.2265625 C16.13224609 124.17855469 16.13224609 124.17855469 16.78125 123.109375 C17.6648721 121.10953714 17.6648721 121.10953714 16.703125 119.21923828 C15.28997547 116.86199616 13.72240424 115.14764961 11.7734375 113.2109375 C11.06251953 112.50195312 10.35160156 111.79296875 9.61914062 111.0625 C8.87728516 110.33289063 8.13542969 109.60328125 7.37109375 108.8515625 C6.62537109 108.10648438 5.87964844 107.36140625 5.11132812 106.59375 C0.70264789 100.95811091 0.70264789 100.95811091 -4.34204102 103.76367188 Z M-79.25024414 110.671875 C-80.43241842 111.85420858 -81.61182164 113.03931665 -82.7890625 114.2265625 C-83.40913681 114.84805176 -84.02921112 115.46954102 -84.66807556 116.10986328 C-86.6573664 118.1047731 -88.64316126 120.10312368 -90.62890625 122.1015625 C-91.97307926 123.45074806 -93.31747731 124.79970945 -94.66210938 126.1484375 C-97.96616332 129.46354562 -101.26708491 132.78174456 -104.56640625 136.1015625 C-103.05264544 139.66920535 -100.96127496 141.93862537 -98.21484375 144.6484375 C-97.3640625 145.49277344 -96.51328125 146.33710938 -95.63671875 147.20703125 C-94.74726563 148.07972656 -93.8578125 148.95242187 -92.94140625 149.8515625 C-92.04421875 150.73972656 -91.14703125 151.62789062 -90.22265625 152.54296875 C-88.00833621 154.73373219 -85.7894819 156.91969013 -83.56640625 159.1015625 C-79.37014716 157.46378205 -76.5796384 154.36833068 -73.48828125 151.21875 C-72.91684387 150.64448273 -72.34540649 150.07021545 -71.75665283 149.47854614 C-69.9384768 147.6492044 -68.12739133 145.81302057 -66.31640625 143.9765625 C-65.08249296 142.73261476 -63.84812303 141.4891198 -62.61328125 140.24609375 C-59.59233882 137.20313883 -56.57773533 134.15402996 -53.56640625 131.1015625 C-58.08856671 125.68209146 -62.87559052 120.64006258 -67.87890625 115.6640625 C-68.60658203 114.93251953 -69.33425781 114.20097656 -70.08398438 113.44726562 C-70.77556641 112.75697266 -71.46714844 112.06667969 -72.1796875 111.35546875 C-72.80657471 110.72970947 -73.43346191 110.1039502 -74.0793457 109.45922852 C-76.66709569 107.09664804 -76.43892098 107.97946981 -79.25024414 110.671875 Z M-160.79931641 123.5793457 C-161.80644852 124.54839027 -162.82505287 125.5056582 -163.85498047 126.45043945 C-169.88889285 131.59013667 -169.88889285 131.59013667 -172.89379883 138.55078125 C-172.41798202 140.98762639 -171.6855044 142.88878833 -170.56640625 145.1015625 C-170.27781738 145.72828857 -169.98922852 146.35501465 -169.69189453 147.00073242 C-168.80063163 148.78933613 -167.77658641 150.50971129 -166.75390625 152.2265625 C-166.40005859 152.82549316 -166.04621094 153.42442383 -165.68164062 154.04150391 C-163.18053302 158.22710065 -160.51996448 162.22501732 -157.56640625 166.1015625 C-151.01263528 160.71515326 -145.0939399 154.74271123 -139.12890625 148.7265625 C-138.10114642 147.69377655 -137.0731534 146.66122259 -136.04492188 145.62890625 C-133.54939027 143.12245963 -131.05702543 140.6128917 -128.56640625 138.1015625 C-130.07671951 134.56340197 -132.14233981 132.26790103 -134.84765625 129.5546875 C-136.11029297 128.28818359 -136.11029297 128.28818359 -137.3984375 126.99609375 C-138.27886719 126.12339844 -139.15929687 125.25070313 -140.06640625 124.3515625 C-140.94683594 123.46339844 -141.82726562 122.57523438 -142.734375 121.66015625 C-143.99701172 120.40138672 -143.99701172 120.40138672 -145.28515625 119.1171875 C-146.05794922 118.34665039 -146.83074219 117.57611328 -147.62695312 116.78222656 C-152.58277456 112.4876804 -157.19050341 120.07251321 -160.79931641 123.5793457 Z M-45.25024414 144.671875 C-46.43241842 145.85420858 -47.61182164 147.03931665 -48.7890625 148.2265625 C-49.40913681 148.84805176 -50.02921112 149.46954102 -50.66807556 150.10986328 C-52.6573664 152.1047731 -54.64316126 154.10312368 -56.62890625 156.1015625 C-57.97307926 157.45074806 -59.31747731 158.79970945 -60.66210938 160.1484375 C-63.96616332 163.46354562 -67.26708491 166.78174456 -70.56640625 170.1015625 C-69.13994845 173.3602261 -67.39936463 175.5040479 -64.87109375 177.9921875 C-64.15566406 178.70117188 -63.44023437 179.41015625 -62.703125 180.140625 C-61.95675781 180.87023437 -61.21039063 181.59984375 -60.44140625 182.3515625 C-59.68730469 183.09664062 -58.93320312 183.84171875 -58.15625 184.609375 C-56.29739853 186.4446967 -54.4340362 188.2751816 -52.56640625 190.1015625 C-39.51813437 183.84547558 -29.46665607 175.5280067 -19.56640625 165.1015625 C-24.08856671 159.68209146 -28.87559052 154.64006258 -33.87890625 149.6640625 C-34.60658203 148.93251953 -35.33425781 148.20097656 -36.08398438 147.44726562 C-36.77556641 146.75697266 -37.46714844 146.06667969 -38.1796875 145.35546875 C-38.80657471 144.72970947 -39.43346191 144.1039502 -40.0793457 143.45922852 C-42.66709569 141.09664804 -42.43892098 141.97946981 -45.25024414 144.671875 Z M-120.36376953 151.671875 C-121.54322854 152.85165193 -122.7171682 154.03696229 -123.88671875 155.2265625 C-124.50537811 155.84805176 -125.12403748 156.46954102 -125.76144409 157.10986328 C-127.74282356 159.10246773 -129.71714974 161.10190283 -131.69140625 163.1015625 C-133.03079227 164.45097532 -134.37063026 165.79993968 -135.7109375 167.1484375 C-139.00136735 170.46095845 -142.28548631 173.77962318 -145.56640625 177.1015625 C-138.68899929 184.18748757 -128.29530669 190.82611065 -118.56640625 193.1015625 C-114.49450471 192.68109735 -112.59217033 190.47397589 -109.80078125 187.62890625 C-108.91132813 186.72978516 -108.021875 185.83066406 -107.10546875 184.90429688 C-106.18507813 183.95876953 -105.2646875 183.01324219 -104.31640625 182.0390625 C-103.37178952 181.07939277 -102.4264843 180.12040021 -101.48046875 179.16210938 C-99.16891453 176.81517422 -96.86464285 174.46152859 -94.56640625 172.1015625 C-96.07671951 168.56340197 -98.14233981 166.26790103 -100.84765625 163.5546875 C-102.11029297 162.28818359 -102.11029297 162.28818359 -103.3984375 160.99609375 C-104.27886719 160.12339844 -105.15929687 159.25070313 -106.06640625 158.3515625 C-106.94683594 157.46339844 -107.82726562 156.57523438 -108.734375 155.66015625 C-109.99701172 154.40138672 -109.99701172 154.40138672 -111.28515625 153.1171875 C-112.05794922 152.34665039 -112.83074219 151.57611328 -113.62695312 150.78222656 C-116.81479169 148.01975417 -117.23646622 148.79840238 -120.36376953 151.671875 Z M-84.98681641 184.29492188 C-85.78804932 185.11186523 -85.78804932 185.11186523 -86.60546875 185.9453125 C-87.18554688 186.53183594 -87.765625 187.11835938 -88.36328125 187.72265625 C-88.9665625 188.34269531 -89.56984375 188.96273437 -90.19140625 189.6015625 C-90.80242187 190.22160156 -91.4134375 190.84164062 -92.04296875 191.48046875 C-93.55528344 193.01641336 -95.06142739 194.55842925 -96.56640625 196.1015625 C-96.23640625 196.7615625 -95.90640625 197.4215625 -95.56640625 198.1015625 C-86.67388329 198.36353535 -78.31644343 197.7054973 -69.56640625 196.1015625 C-73.36655399 191.5467755 -77.22306171 187.14876991 -81.56640625 183.1015625 C-83.62038602 182.88714251 -83.62038602 182.88714251 -84.98681641 184.29492188 Z " fill="#000000" transform="translate(432.56640625,58.8984375)"/>
<path d="M0 0 C8.01985058 5.50706438 12.37145723 12.35540701 14.83203125 21.6796875 C15.32703125 21.52242188 15.82203125 21.36515625 16.33203125 21.203125 C28.23401756 18.71114662 39.34369429 20.51520459 49.6875 26.80859375 C57.03244729 32.22761656 61.91438392 41.64470954 63.265625 50.53125 C63.90451076 56.76235807 63.7601574 62.49217986 62.83203125 68.6796875 C63.44949219 68.875625 64.06695312 69.0715625 64.703125 69.2734375 C73.74138687 72.46503073 81.0795503 77.96823706 85.83203125 86.43359375 C90.33432157 96.54615989 91.32395374 106.90050931 87.4765625 117.3671875 C82.42927683 128.80147976 75.1429552 134.87989074 63.73371887 139.53601074 C61.51124811 140.37167985 59.28038163 141.17786352 57.04296875 141.97265625 C56.20180511 142.27605927 55.36064148 142.57946228 54.49398804 142.89205933 C52.67928468 143.54625068 50.86384056 144.19839016 49.04772949 144.84866333 C46.16132533 145.88357523 43.27803878 146.92676401 40.39550781 147.97241211 C30.99873643 151.37972081 21.59515505 154.76690172 12.17971802 158.12229919 C7.98753015 159.6204746 3.80079313 161.13348718 -0.38494873 162.64956665 C-2.3923539 163.37271807 -4.40214789 164.08927539 -6.41436768 164.79891968 C-9.23956757 165.79593978 -12.05575534 166.81536411 -14.87109375 167.83984375 C-15.6963858 168.12479706 -16.52167786 168.40975037 -17.37197876 168.70333862 C-22.66233148 170.66207322 -26.3508774 173.20828372 -30.42590332 177.11329651 C-32.84722814 179.2904486 -35.39170389 180.4059744 -38.41796875 181.5546875 C-39.413125 181.94398438 -40.40828125 182.33328125 -41.43359375 182.734375 C-51.82542514 186.32697957 -64.22186177 185.99982858 -74.45703125 182.00390625 C-87.72770761 175.52154417 -95.58491158 165.74637194 -100.48046875 151.9921875 C-102.9382015 140.15689195 -101.92598946 127.01171941 -95.26171875 116.7421875 C-93.93902279 114.96543174 -92.57839947 113.21575595 -91.16796875 111.5078125 C-85.84018736 103.97399663 -83.19387964 94.60345743 -80.02734375 86.01171875 C-79.53679656 84.68714282 -79.0460076 83.3626564 -78.55499268 82.03825378 C-77.26659703 78.5608742 -75.98180286 75.08217447 -74.69769287 71.60321045 C-73.67138221 68.82457977 -72.64247017 66.04691628 -71.61336517 63.26931953 C-70.60394454 60.5444646 -69.59565735 57.81919084 -68.5874176 55.09389877 C-68.08947373 53.74863064 -67.59113251 52.40350951 -67.09239197 51.05853653 C-64.63221988 44.42375503 -62.1900015 37.78549101 -59.86132812 31.10302734 C-59.51048157 30.10542892 -59.15963501 29.10783051 -58.79815674 28.08000183 C-58.16844669 26.28161123 -57.54847952 24.47975741 -56.94158936 22.67353821 C-52.95948432 11.34250818 -45.66633354 1.51052758 -34.66796875 -3.8203125 C-23.10195976 -7.86841565 -10.30631649 -6.27663959 0 0 Z " fill="#020101" transform="translate(401.16796875,323.3203125)"/>
<path d="M0 0 C19.67934408 14.1655535 33.6518658 31.95511239 44.140625 53.71826172 C44.55957031 54.57419922 44.97851562 55.43013672 45.41015625 56.31201172 C58.92487373 86.89511741 56.74721913 122.52747034 45.17041016 153.17431641 C36.12371918 175.52294609 20.06120762 192.00615628 3.33203125 208.82202148 C1.79398009 210.37158209 0.26040158 211.9255956 -1.26855469 213.48413086 C-15.40349278 227.89112851 -29.34828713 239.49111156 -47.859375 247.71826172 C-48.8189209 248.14945312 -48.8189209 248.14945312 -49.79785156 248.58935547 C-65.30308847 255.45946554 -80.80548758 257.91339346 -97.66259766 257.95849609 C-99.82625088 257.96811447 -101.98891611 257.99915721 -104.15234375 258.03076172 C-119.13396945 258.14925066 -132.68706746 254.81720442 -146.859375 250.03076172 C-147.51102631 249.81205414 -148.16267761 249.59334656 -148.83407593 249.36801147 C-162.56477036 244.73476157 -174.82229558 239.32460862 -185.859375 229.71826172 C-186.67921875 229.02990234 -187.4990625 228.34154297 -188.34375 227.63232422 C-194.2763018 222.50875676 -199.33741616 217.12437008 -203.859375 210.71826172 C-204.49359375 209.83009766 -205.1278125 208.94193359 -205.78125 208.02685547 C-211.02203023 199.81979364 -214.10257647 190.91176336 -217.171875 181.71826172 C-217.49125031 180.76747742 -217.49125031 180.76747742 -217.81707764 179.79748535 C-220.78645622 170.88157862 -223.11646661 161.95213692 -224.859375 152.71826172 C-225.04709473 151.74775879 -225.23481445 150.77725586 -225.42822266 149.77734375 C-226.21988638 144.16038653 -226.04530026 138.48815164 -226.04467773 132.82568359 C-226.04684828 130.62040431 -226.06499113 128.4156392 -226.08398438 126.21044922 C-226.13471507 114.10934611 -224.68495537 103.02084346 -220.796875 91.53076172 C-220.49450928 90.63437988 -220.19214355 89.73799805 -219.88061523 88.81445312 C-214.02871705 72.12641814 -204.97768807 57.85410458 -192.83984375 45.00732422 C-190.71629014 42.55288158 -189.13191968 40.71994519 -187.859375 37.71826172 C-188.06039297 36.26425478 -188.31467989 34.81716265 -188.60546875 33.37841797 C-189.04641688 30.48495831 -189.1609844 29.2222335 -187.64111328 26.68261719 C-185.82748337 24.70369699 -183.94072973 22.92442473 -181.921875 21.15576172 C-181.24962891 20.52863281 -180.57738281 19.90150391 -179.88476562 19.25537109 C-178.22993216 17.7179017 -176.55665418 16.20851679 -174.859375 14.71826172 C-173.869375 15.04826172 -172.879375 15.37826172 -171.859375 15.71826172 C-168.66032512 16.55779439 -168.66032512 16.55779439 -164.859375 15.71826172 C-162.28122807 13.76623619 -160.02860422 11.58586679 -157.6953125 9.34716797 C-139.4804175 -7.53798952 -116.79934954 -16.39830351 -92.859375 -21.28173828 C-91.67541138 -21.54651978 -91.67541138 -21.54651978 -90.4675293 -21.81665039 C-59.67162715 -27.30819711 -25.43939975 -17.53635093 0 0 Z M-108.859375 6.71826172 C-109.58753418 7.00233887 -110.31569336 7.28641602 -111.06591797 7.57910156 C-113.2894146 8.47854276 -115.48326151 9.42464197 -117.671875 10.40576172 C-118.60362549 10.82245117 -118.60362549 10.82245117 -119.55419922 11.24755859 C-134.63910832 18.60071998 -146.21035036 30.40966839 -157.88330078 42.16577148 C-160.6024597 44.89881112 -163.34481135 47.60694209 -166.08984375 50.31396484 C-189.03993077 73.16068953 -203.01526989 97.8273675 -203.109375 130.78076172 C-203.07533514 161.28534182 -191.5595516 186.48730228 -170.12353516 207.88891602 C-148.31975766 228.83405741 -120.76453328 235.3303945 -91.33203125 234.99560547 C-83.30958896 234.76254998 -76.44932414 233.32654734 -68.859375 230.71826172 C-68.1979248 230.50395508 -67.53647461 230.28964844 -66.85498047 230.06884766 C-48.778038 224.18731345 -34.5101803 213.66410687 -21.10546875 200.30029297 C-20.31970963 199.52119064 -19.5339505 198.74208832 -18.72438049 197.93937683 C-17.07740632 196.30244761 -15.43305727 194.66287319 -13.79125977 193.02075195 C-11.30973226 190.54359633 -8.8126326 188.08290548 -6.31445312 185.62255859 C2.16613885 177.20286102 9.99413403 169.01726245 16.140625 158.71826172 C16.80396851 157.60874146 16.80396851 157.60874146 17.48071289 156.47680664 C18.5183099 154.64445448 19.47374999 152.80092919 20.390625 150.90576172 C20.71361572 150.24833984 21.03660645 149.59091797 21.36938477 148.91357422 C31.52689161 127.53895537 34.67004021 98.24220209 27.52734375 75.33544922 C26.84091797 73.54494141 26.84091797 73.54494141 26.140625 71.71826172 C25.86686035 70.99928711 25.5930957 70.2803125 25.31103516 69.53955078 C15.53683568 44.43919462 -2.88860254 22.49727226 -27.55859375 10.91748047 C-30.96568609 9.43309321 -34.3871152 8.04224762 -37.859375 6.71826172 C-39.07560547 6.24259766 -39.07560547 6.24259766 -40.31640625 5.75732422 C-60.774698 -1.68875674 -88.57898152 -1.22203589 -108.859375 6.71826172 Z " fill="#F5EFED" transform="translate(442.859375,37.28173828125)"/>
<path d="M0 0 C4.81791979 3.8513564 8.77569206 7.80579194 12.375 12.8125 C12.8397876 13.45340576 13.3045752 14.09431152 13.78344727 14.75463867 C18.96468763 22.09038425 23.10681884 29.92202993 27 38 C27.41894531 38.8559375 27.83789062 39.711875 28.26953125 40.59375 C41.78424873 71.17685569 39.60659413 106.80920862 28.02978516 137.45605469 C18.98309418 159.80468437 2.92058262 176.28789456 -13.80859375 193.10375977 C-15.34664491 194.65332037 -16.88022342 196.20733388 -18.40917969 197.76586914 C-32.54411778 212.17286679 -46.48891213 223.77284984 -65 232 C-65.63969727 232.28746094 -66.27939453 232.57492187 -66.93847656 232.87109375 C-82.44371347 239.74120382 -97.94611258 242.19513174 -114.80322266 242.24023438 C-116.96687588 242.24985275 -119.12954111 242.28089549 -121.29296875 242.3125 C-130.89840881 242.38320077 -139.65052127 241.25571485 -149 239 C-148.06317383 238.54645142 -148.06317383 238.54645142 -147.10742188 238.08374023 C-144.90760211 236.95248445 -143.33861518 235.71160879 -141.5 234.0625 C-140.78972656 233.45277344 -140.07945312 232.84304688 -139.34765625 232.21484375 C-136.89118661 229.98776626 -136.89118661 229.98776626 -134.62109375 227.12890625 C-130.21910405 222.03465481 -126.5869339 218.86159321 -119.67578125 218.21484375 C-115.68224479 218.04206899 -111.69584388 218.06159931 -107.69921875 218.078125 C-99.97778009 218.09347323 -93.32928881 216.37973796 -86 214 C-85.00129883 213.68071533 -85.00129883 213.68071533 -83.98242188 213.35498047 C-62.42666834 206.33148258 -47.12034792 192.49415396 -31.35913086 176.72973633 C-28.9500265 174.32500377 -26.52536184 171.93675113 -24.09960938 169.54882812 C-13.55480611 159.08196217 -4.27741051 148.67956382 2.25 135.1875 C2.57299072 134.53007812 2.89598145 133.87265625 3.22875977 133.1953125 C13.39295022 111.80662923 16.50811495 82.5493404 9.39453125 59.625 C5.64614394 49.88129293 1.93260156 40.46277765 -4.1875 31.9375 C-7.02990978 27.64804524 -7.02990978 27.64804524 -6.90625 24.96875 C-6.1875 22.9375 -6.1875 22.9375 -5.1796875 20.8125 C-3.49891987 16.80537186 -2.70694845 12.67923554 -1.8125 8.4375 C-1.63420654 7.61435303 -1.45591309 6.79120605 -1.2722168 5.94311523 C-0.84356289 3.96306314 -0.42113071 1.98166581 0 0 Z " fill="#EBDED9" transform="translate(460,53)"/>
<path d="M0 0 C5.31353399 3.02247581 9.42322394 7.78524035 11.75 13.4375 C12.56618843 19.67021162 12.1567551 26.0416395 8.75 31.4375 C6.01712323 34.45115178 2.94062089 36.92285811 -0.25 39.4375 C-0.75466797 39.83807617 -1.25933594 40.23865234 -1.77929688 40.65136719 C-4.654865 42.93265123 -7.54432769 45.19533702 -10.44140625 47.44921875 C-14.42265745 50.55721651 -18.33855357 53.74237347 -22.25 56.9375 C-27.76952439 61.4424108 -33.3342239 65.88046153 -38.94995117 70.26464844 C-44.22433233 74.39301158 -49.41576085 78.6202452 -54.60546875 82.85424805 C-59.43219039 86.78728691 -64.30189004 90.65769378 -69.25 94.4375 C-72.98867071 91.30922451 -76.68269846 88.13576079 -80.25 84.8125 C-80.848125 84.26335937 -81.44625 83.71421875 -82.0625 83.1484375 C-83.25 81.4375 -83.25 81.4375 -82.99755859 79.55664062 C-82.15524754 77.16890059 -81.11254752 75.74709347 -79.4765625 73.8203125 C-78.61865112 72.79707886 -78.61865112 72.79707886 -77.7434082 71.75317383 C-77.1268335 71.03025146 -76.51025879 70.3073291 -75.875 69.5625 C-74.58858353 68.02839962 -73.30344251 66.49322889 -72.01953125 64.95703125 C-71.05974365 63.81161865 -71.05974365 63.81161865 -70.08056641 62.64306641 C-67.51797622 59.55551776 -65.03027961 56.41354126 -62.5625 53.25 C-62.11970703 52.68345703 -61.67691406 52.11691406 -61.22070312 51.53320312 C-59.89571184 49.83573992 -58.57278477 48.13668296 -57.25 46.4375 C-50.93018135 38.33522791 -44.5509788 30.29044712 -38.02490234 22.3527832 C-35.43901408 19.19383744 -32.91174522 16.01971192 -30.51953125 12.7109375 C-22.765929 2.00182013 -13.71580879 -6.00883052 0 0 Z " fill="#F6F0EE" transform="translate(437.25,360.5625)"/>
<path d="M0 0 C6.06728529 2.64201633 9.80081512 7.55475524 12.71484375 13.3828125 C13.58924186 17.25413963 13.59381745 20.50582578 12.71484375 24.3828125 C9.96027238 28.5485159 6.68319823 32.0549101 3.26708984 35.68261719 C0.75380939 38.43544592 -1.50960545 41.37052442 -3.78515625 44.3203125 C-4.70422655 45.49885433 -5.62349796 46.67723935 -6.54296875 47.85546875 C-7.22407715 48.73162842 -7.22407715 48.73162842 -7.91894531 49.62548828 C-14.65758431 58.2932373 -21.46461967 66.89828507 -28.42895508 75.38623047 C-31.15340062 78.7161536 -33.82668095 82.06995283 -36.4140625 85.5078125 C-36.9090625 86.16007812 -37.4040625 86.81234375 -37.9140625 87.484375 C-38.84798628 88.7211242 -39.77175058 89.96563219 -40.68359375 91.21875 C-41.9453125 92.8828125 -41.9453125 92.8828125 -44.28515625 95.3828125 C-47.83562291 95.3828125 -49.38754867 95.14185553 -52.53515625 93.8828125 C-53.2415625 93.604375 -53.94796875 93.3259375 -54.67578125 93.0390625 C-55.206875 92.8225 -55.73796875 92.6059375 -56.28515625 92.3828125 C-51.29500872 77.97817869 -46.14612203 63.63486383 -40.9140625 49.31640625 C-39.65198838 45.86044627 -38.39429367 42.40291182 -37.13671875 38.9453125 C-36.31927588 36.70563226 -35.50157667 34.46604556 -34.68359375 32.2265625 C-34.31575775 31.21380249 -33.94792175 30.20104248 -33.56893921 29.15759277 C-32.49441653 26.22458275 -31.39837457 23.30134969 -30.28515625 20.3828125 C-29.87493225 19.30700928 -29.46470825 18.23120605 -29.04205322 17.12280273 C-28.62034851 16.05940674 -28.1986438 14.99601074 -27.76416016 13.90039062 C-27.38691803 12.94136841 -27.0096759 11.98234619 -26.6210022 10.9942627 C-21.39283547 0.77370018 -10.75205904 -2.90397492 0 0 Z " fill="#F5EFED" transform="translate(388.28515625,333.6171875)"/>
<path d="M0 0 C6.96034268 2.15053777 11.9569479 6.36166012 15.3515625 12.7265625 C17.21107289 18.30509366 17.41207637 24.00710193 15.2578125 29.53125 C10.01438499 38.93037271 1.9219432 41.45828183 -7.79296875 44.921875 C-8.8684346 45.31145889 -9.94390045 45.70104279 -11.05195618 46.10243225 C-14.51963456 47.35770574 -17.99027481 48.60456711 -21.4609375 49.8515625 C-26.17444278 51.55510789 -30.88622196 53.26339258 -35.59765625 54.97265625 C-36.74266602 55.38753799 -37.88767578 55.80241974 -39.06738281 56.22987366 C-48.71953259 59.73445455 -58.31508494 63.36416278 -67.86645508 67.13525391 C-68.7664624 67.48894043 -69.66646973 67.84262695 -70.59375 68.20703125 C-71.34156738 68.50504639 -72.08938477 68.80306152 -72.85986328 69.11010742 C-74.6484375 69.7265625 -74.6484375 69.7265625 -76.6484375 69.7265625 C-77.15677341 68.47992919 -77.65474895 67.22906863 -78.1484375 65.9765625 C-78.426875 65.28046875 -78.7053125 64.584375 -78.9921875 63.8671875 C-79.6484375 61.7265625 -79.6484375 61.7265625 -79.6484375 57.7265625 C-77.68704169 55.89081861 -75.8075736 54.36017855 -73.6484375 52.7890625 C-72.35558193 51.81277033 -71.06396252 50.83483952 -69.7734375 49.85546875 C-69.09539062 49.34516113 -68.41734375 48.83485352 -67.71875 48.30908203 C-64.29753437 45.69394999 -60.97712297 42.9578124 -57.6484375 40.2265625 C-52.1014026 35.69807165 -46.51139672 31.23196158 -40.86938477 26.82250977 C-37.22372992 23.97125495 -33.60002851 21.09476901 -29.99316406 18.19458008 C-28.10759053 16.6814387 -26.21414704 15.17856215 -24.3203125 13.67578125 C-21.89309632 11.74411105 -19.51644616 9.76804894 -17.1640625 7.74609375 C-7.03429363 -0.8019553 -7.03429363 -0.8019553 0 0 Z " fill="#F5EFED" transform="translate(458.6484375,406.2734375)"/>
<path d="M0 0 C2.90619135 1.39596486 4.97121766 2.73064201 7.234375 5.0390625 C7.80800781 5.61914062 8.38164062 6.19921875 8.97265625 6.796875 C9.55917969 7.40015625 10.14570313 8.0034375 10.75 8.625 C11.35199219 9.23601562 11.95398438 9.84703125 12.57421875 10.4765625 C14.05405305 11.97988624 15.52764676 13.48934856 17 15 C15.67289741 17.94209835 14.23210009 20.01614431 11.95016479 22.29034424 C11.32476807 22.9184903 10.69937134 23.54663635 10.05502319 24.19381714 C9.02787704 25.21017746 9.02787704 25.21017746 7.97998047 26.24707031 C7.25792419 26.96941864 6.53586792 27.69176697 5.79193115 28.43600464 C3.40506011 30.82148279 1.0111838 33.19979939 -1.3828125 35.578125 C-3.03948779 37.23107002 -4.69572195 38.88445727 -6.35153198 40.53826904 C-10.71025917 44.88936088 -15.07495924 49.23441313 -19.44091797 53.57824707 C-23.89521505 58.01208371 -28.34385418 62.45158909 -32.79296875 66.890625 C-41.52310855 75.5993166 -50.25956694 84.30164008 -59 93 C-61.90619135 91.60403514 -63.97121766 90.26935799 -66.234375 87.9609375 C-66.80800781 87.38085938 -67.38164063 86.80078125 -67.97265625 86.203125 C-68.55917969 85.59984375 -69.14570312 84.9965625 -69.75 84.375 C-70.35199219 83.76398438 -70.95398438 83.15296875 -71.57421875 82.5234375 C-73.05405305 81.02011376 -74.52764676 79.51065144 -76 78 C-74.43468162 74.16128262 -72.0155489 71.87046908 -69.02734375 69.04296875 C-68.03522769 68.08588692 -67.04370943 67.12818507 -66.05273438 66.16992188 C-64.49651094 64.67554488 -62.93625392 63.18632744 -61.36499023 61.70776367 C-59.84279168 60.27067626 -58.34052766 58.81496546 -56.83984375 57.35546875 C-55.93613037 56.49590576 -55.03241699 55.63634277 -54.10131836 54.75073242 C-51.54151345 51.39981782 -51.16517659 49.17840027 -51 45 C-51.19650146 44.25782227 -51.39300293 43.51564453 -51.59545898 42.75097656 C-51.72895752 42.1731543 -51.86245605 41.59533203 -52 41 C-50.08065216 38.70983534 -48.23652142 36.76718302 -46.0625 34.75 C-45.1972168 33.91855469 -45.1972168 33.91855469 -44.31445312 33.0703125 C-42.88722271 31.70205855 -41.44497942 30.3494962 -40 29 C-39.01 29.33 -38.02 29.66 -37 30 C-33.63635882 30.4915095 -31.15037282 30.75576922 -28.22146606 28.83154297 C-26.30117466 27.11152126 -24.52452462 25.31128283 -22.75390625 23.4375 C-22.09792953 22.77161865 -21.44195282 22.1057373 -20.76609802 21.41967773 C-18.6811901 19.29568372 -16.62197174 17.14863781 -14.5625 15 C-13.15071718 13.5530966 -11.73732241 12.10776416 -10.32226562 10.6640625 C-6.86256315 7.12731084 -3.42569684 3.56968687 0 0 Z " fill="#F4EEEC" transform="translate(194,301)"/>
<path d="M0 0 C2.85779017 1.29719924 4.91008536 2.6636826 7.11621094 4.88916016 C7.69651062 5.4696109 8.2768103 6.05006165 8.87469482 6.64810181 C9.48838928 7.27211884 10.10208374 7.89613586 10.734375 8.5390625 C11.37240051 9.17991791 12.01042603 9.82077332 12.66778564 10.48104858 C14.69994069 12.52437821 16.72502218 14.57455982 18.75 16.625 C20.1284453 18.0134786 21.50734636 19.4015049 22.88671875 20.7890625 C26.26311894 24.18748697 29.63319288 27.59207254 33 31 C31.39117528 34.96149565 28.64527556 37.69441836 25.6875 40.68359375 C24.89496826 41.4896682 24.89496826 41.4896682 24.08642578 42.31202698 C22.96612082 43.44681545 21.84300368 44.57883358 20.71728516 45.70825195 C19.02111747 47.41623543 17.34454202 49.14194916 15.66796875 50.86914062 C8.9376386 57.70266693 2.61926715 63.65780603 -7.1015625 65.62890625 C-14.39964273 65.43685151 -19.55090764 64.20370239 -24.9765625 59.1640625 C-30.8599819 52.84483426 -32.1658778 47.54928239 -32.55859375 39.07421875 C-30.52991582 27.90939684 -20.93738569 20.47623343 -13.1875 12.9375 C-11.90857829 11.6786754 -10.63057491 10.41891709 -9.35351562 9.15820312 C-6.24616847 6.0945928 -3.12663834 3.04391462 0 0 Z " fill="#7A9FAE" transform="translate(47,432)"/>
<path d="M0 0 C2.90598525 2.02775378 5.4173749 4.58111482 8 7 C8.50444641 7.47177673 9.00889282 7.94355347 9.52862549 8.42962646 C13.10578017 11.78733679 16.63553067 15.18996622 20.13916016 18.62426758 C21.38619835 19.83940175 22.6412144 21.04639877 23.90380859 22.24536133 C25.74711662 23.99743299 27.56284848 25.77438365 29.375 27.55859375 C29.94049561 28.08593613 30.50599121 28.6132785 31.08862305 29.15660095 C34.02729473 32.11025001 35.34870659 34.03323192 35.42529297 38.28051758 C35 42 35 42 33.8203125 43.953125 C26.48123918 49.56734699 19.09955688 52.77964224 9.734375 52.3828125 C2.00951706 51.30133239 -4.86649537 47.91924513 -10 42 C-14.82253867 34.9714064 -17.7313622 27.63007392 -17 19 C-15.61243646 11.88727934 -12.9786851 6.31152199 -8 1 C-4.98221063 -0.50889469 -3.37677363 -0.50026276 0 0 Z " fill="#F82938" transform="translate(332,441)"/>
<path d="M0 0 C3.67378715 3.51717811 6.78738797 7.22136741 9.8125 11.3125 C18.36873882 22.57295231 28.3014091 30.2009394 40 38 C40 38.66 40 39.32 40 40 C35.99910548 41.94090672 31.99720095 43.87971108 27.99438477 45.81665039 C26.63538747 46.47461478 25.2766583 47.13313327 23.91821289 47.79223633 C21.95530869 48.74449356 19.99141963 49.69469345 18.02734375 50.64453125 C16.84906006 51.21534424 15.67077637 51.78615723 14.45678711 52.37426758 C13.31604736 52.91075928 12.17530762 53.44725098 11 54 C10.38826935 54.30062347 9.7765387 54.60124695 9.14627075 54.91098022 C6.64832607 56.08305599 4.61303117 57.02452674 1.8215332 56.9128418 C-2.38275459 54.80590813 -5.50898693 51.08877883 -8.8125 47.8125 C-9.61365234 47.05646484 -10.41480469 46.30042969 -11.24023438 45.52148438 C-11.99240234 44.77833984 -12.74457031 44.03519531 -13.51953125 43.26953125 C-14.21151611 42.59510986 -14.90350098 41.92068848 -15.61645508 41.22583008 C-17 39 -17 39 -16.91064453 36.1574707 C-15.89031755 32.61969891 -14.53330656 29.5170396 -12.91015625 26.2109375 C-12.60556992 25.58522858 -12.30098358 24.95951965 -11.98716736 24.31484985 C-11.01949333 22.3312721 -10.04120414 20.35315477 -9.0625 18.375 C-8.40879871 17.03940806 -7.75579713 15.70347341 -7.10351562 14.3671875 C-4.757121 9.56747299 -2.39512658 4.77560855 0 0 Z " fill="#7AA0AF" transform="translate(222,250)"/>
<path d="M0 0 C1.17825358 0.90172468 2.34231577 1.82201502 3.5 2.75 C4.47453125 3.51570313 4.47453125 3.51570313 5.46875 4.296875 C7 6 7 6 7 10 C5.8286972 11.66349411 5.8286972 11.66349411 4.15270996 13.32830811 C3.52164841 13.96486832 2.89058685 14.60142853 2.24040222 15.25727844 C1.53909683 15.94420273 0.83779144 16.63112701 0.11523438 17.33886719 C-0.61628342 18.07096909 -1.34780121 18.80307098 -2.10148621 19.55735779 C-4.52704853 21.98012855 -6.96648211 24.38841691 -9.40625 26.796875 C-11.08863762 28.47180411 -12.77014555 30.14761727 -14.45080566 31.82427979 C-18.88082238 36.23900976 -23.32271923 40.64159766 -27.76715088 45.04180908 C-32.29858284 49.53235442 -36.81873981 54.03421699 -41.33984375 58.53515625 C-50.21552866 67.36791655 -59.10342139 76.1882873 -68 85 C-71.17483377 83.50427507 -73.02236535 82.10891525 -75.25 79.375 C-76.03117187 78.42753906 -76.03117187 78.42753906 -76.828125 77.4609375 C-77.21484375 76.97882813 -77.6015625 76.49671875 -78 76 C-76.98737846 75.47535408 -76.98737846 75.47535408 -75.95429993 74.94010925 C-72.05738721 72.38097964 -69.00107008 69.26349731 -65.73120117 65.95825195 C-65.01846039 65.24580322 -64.3057196 64.53335449 -63.57138062 63.79931641 C-61.22380314 61.45034896 -58.88338362 59.09438349 -56.54296875 56.73828125 C-54.91387374 55.10545494 -53.28433573 53.47307051 -51.65437317 51.84111023 C-47.37069536 47.54980525 -43.09305838 43.25252746 -38.81665039 38.95397949 C-34.44975786 34.56660892 -30.07718076 30.1849119 -25.70507812 25.80273438 C-17.13114468 17.20736715 -8.56358207 8.6056795 0 0 Z " fill="#E9DCD7" transform="translate(203,309)"/>
<path d="M0 0 C4.20526845 5.48513277 4.51398704 9.14683945 4 16 C2.74362819 23.62106856 -2.17390857 27.40824997 -8 32 C-8.50466797 32.40057617 -9.00933594 32.80115234 -9.52929688 33.21386719 C-12.404865 35.49515123 -15.29432769 37.75783702 -18.19140625 40.01171875 C-22.17265745 43.11971651 -26.08855357 46.30487347 -30 49.5 C-35.51952439 54.0049108 -41.0842239 58.44296153 -46.69995117 62.82714844 C-51.97433233 66.95551158 -57.16576085 71.1827452 -62.35546875 75.41674805 C-67.18281892 79.35029906 -72.06073166 83.20734753 -77 87 C-79.31 85.02 -81.62 83.04 -84 81 C-80.10277325 76.94568733 -75.94499918 73.39370224 -71.5625 69.875 C-70.50579102 69.02131836 -70.50579102 69.02131836 -69.42773438 68.15039062 C-64.41635448 64.11156963 -59.36383494 60.12704983 -54.29125977 56.16552734 C-49.12961981 52.12572949 -44.04971294 47.98911204 -38.97192383 43.84472656 C-34.57959517 40.26614691 -30.15107639 36.73921183 -25.6875 33.25 C-21.40254462 29.89250317 -17.12034419 26.5325213 -12.875 23.125 C-12.02679688 22.44695312 -11.17859375 21.76890625 -10.3046875 21.0703125 C-6.51497027 17.66599024 -3.80566311 14.40240837 -2.3125 9.5 C-2.0753125 8.72785156 -1.838125 7.95570313 -1.59375 7.16015625 C-0.94211669 4.78941138 -0.39161202 2.42799453 0 0 Z " fill="#EADDD8" transform="translate(445,368)"/>
<path d="M0 0 C6.42865434 5.28868947 12.35121174 11.06346207 18.26416016 16.9140625 C19.43045408 18.06362478 20.60210878 19.20777122 21.77880859 20.34667969 C23.48968278 22.0030976 25.18379576 23.67509539 26.875 25.3515625 C27.40504639 25.85893951 27.93509277 26.36631653 28.48120117 26.8890686 C29.9296875 28.34619141 29.9296875 28.34619141 32 31 C31.98860654 33.59011342 31.35679488 34.54319932 29.78491211 36.55566406 C29.03866577 37.27834473 29.03866577 37.27834473 28.27734375 38.015625 C27.73916016 38.54414063 27.20097656 39.07265625 26.64648438 39.6171875 C26.08251953 40.15601563 25.51855469 40.69484375 24.9375 41.25 C24.08575195 42.08144531 24.08575195 42.08144531 23.21679688 42.9296875 C21.81787531 44.29334214 20.40980886 45.64760417 19 47 C16.14220983 45.70280076 14.08991464 44.3363174 11.88378906 42.11083984 C11.30348938 41.5303891 10.7231897 40.94993835 10.12530518 40.35189819 C9.51161072 39.72788116 8.89791626 39.10386414 8.265625 38.4609375 C7.62759949 37.82008209 6.98957397 37.17922668 6.33221436 36.51895142 C4.30005931 34.47562179 2.27497782 32.42544018 0.25 30.375 C-1.1284453 28.9865214 -2.50734636 27.5984951 -3.88671875 26.2109375 C-7.26311894 22.81251303 -10.63319288 19.40792746 -14 16 C-12.71825282 13.18121988 -11.38992385 11.14758504 -9.1796875 8.984375 C-8.64472656 8.45585937 -8.10976562 7.92734375 -7.55859375 7.3828125 C-7.00300781 6.84398437 -6.44742188 6.30515625 -5.875 5.75 C-5.31167969 5.19570313 -4.74835938 4.64140625 -4.16796875 4.0703125 C-2.78313972 2.70895515 -1.39216796 1.35385141 0 0 Z " fill="#F62937" transform="translate(73,406)"/>
<path d="M0 0 C3.9098576 1.31367653 6.33102739 3.86992447 9.18115234 6.72924805 C9.77337082 7.31289627 10.36558929 7.89654449 10.97575378 8.49787903 C12.22207332 9.73273451 13.46321424 10.97283581 14.69946289 12.21777344 C16.59287836 14.11751571 18.51138467 15.98905531 20.43310547 17.86010742 C21.6424076 19.06486387 22.85014479 20.27119362 24.05615234 21.47924805 C24.63105911 22.03573532 25.20596588 22.5922226 25.79829407 23.16557312 C28.3634641 25.79167847 29.7111496 27.4733945 30.30883789 31.13916016 C29.75653804 34.09741139 29.31838399 35.12525159 27.16162109 37.1472168 C26.34951172 37.93032227 26.34951172 37.93032227 25.52099609 38.72924805 C24.66248047 39.51235352 24.66248047 39.51235352 23.78662109 40.3112793 C22.92810547 41.12918945 22.92810547 41.12918945 22.05224609 41.96362305 C20.6435657 43.30186942 19.21679612 44.62102905 17.78662109 45.9362793 C13.11787572 42.03651208 8.695343 37.98413285 4.41552734 33.6628418 C3.84833481 33.09423431 3.28114227 32.52562683 2.69676208 31.93978882 C0.91182197 30.14931694 -0.86958147 28.35537445 -2.65087891 26.5612793 C-3.8713483 25.33578606 -5.09204944 24.11052358 -6.31298828 22.88549805 C-9.28246647 19.90508156 -12.24878147 16.92155035 -15.21337891 13.9362793 C-7.83549039 5.29460687 -7.83549039 5.29460687 -5.65087891 2.9362793 C-4.84457031 2.0390918 -4.84457031 2.0390918 -4.02197266 1.1237793 C-2.21337891 -0.0637207 -2.21337891 -0.0637207 0 0 Z " fill="#799FAE" transform="translate(99.21337890625,382.063720703125)"/>
<path d="M0 0 C3.82476874 3.44229186 5.59087267 6.43902029 6.40625 11.54296875 C6.6672651 18.90576976 5.03295224 24.47458668 0 30 C-5.73409214 33.67117672 -11.7504664 35.91567894 -18.14453125 38.1953125 C-19.2199971 38.58489639 -20.29546295 38.97448029 -21.40351868 39.37586975 C-24.87119706 40.63114324 -28.34183731 41.87800461 -31.8125 43.125 C-36.52600528 44.82854539 -41.23778446 46.53683008 -45.94921875 48.24609375 C-47.09422852 48.66097549 -48.23923828 49.07585724 -49.41894531 49.50331116 C-59.07109509 53.00789205 -68.66664744 56.63760028 -78.21801758 60.40869141 C-79.1180249 60.76237793 -80.01803223 61.11606445 -80.9453125 61.48046875 C-81.69312988 61.77848389 -82.44094727 62.07649902 -83.21142578 62.38354492 C-85 63 -85 63 -87 63 C-87.66 60.36 -88.32 57.72 -89 55 C-74.94765373 49.26706391 -60.78484945 43.93572212 -46.5 38.8125 C-20.00728472 31.09451628 -20.00728472 31.09451628 -2.19140625 12.09375 C-0.59607383 7.95111632 -0.14739264 4.42177929 0 0 Z " fill="#EADED9" transform="translate(469,413)"/>
<path d="M0 0 C4.59112057 4.34948264 7.24550551 7.54679942 7.8125 13.9375 C7.66993528 21.6156286 2.50289051 26.04251018 -2.44775391 31.29980469 C-4.96103436 34.05263342 -7.2244492 36.98771192 -9.5 39.9375 C-10.4190703 41.11604183 -11.33834171 42.29442685 -12.2578125 43.47265625 C-12.9389209 44.34881592 -12.9389209 44.34881592 -13.63378906 45.24267578 C-20.37242806 53.9104248 -27.17946342 62.51547257 -34.14379883 71.00341797 C-36.86824437 74.3333411 -39.5415247 77.68714033 -42.12890625 81.125 C-42.62390625 81.77726562 -43.11890625 82.42953125 -43.62890625 83.1015625 C-44.56283003 84.3383117 -45.48659433 85.58281969 -46.3984375 86.8359375 C-47.66015625 88.5 -47.66015625 88.5 -50 91 C-53.79557881 91 -55.62902617 90.49821059 -59 89 C-57.32198127 85.13774461 -54.79660053 82.01321305 -52.1875 78.75 C-51.70539063 78.1415625 -51.22328125 77.533125 -50.7265625 76.90625 C-46.47486077 71.55628261 -42.15881328 66.25856029 -37.83862305 60.96386719 C-33.89086357 56.11891618 -30.01422259 51.22346885 -26.1706543 46.2956543 C-22.61427926 41.74878206 -18.97034111 37.27793009 -15.3125 32.8125 C-4.28089518 20.71386282 -4.28089518 20.71386282 0.0625 5.875 C0.05347656 4.77929688 0.04445313 3.68359375 0.03515625 2.5546875 C0.02355469 1.71164062 0.01195312 0.86859375 0 0 Z " fill="#EADDD8" transform="translate(394,338)"/>
<path d="M0 0 C1.13199353 0.9080162 2.25532363 1.82683826 3.375 2.75 C4.00148437 3.26046875 4.62796875 3.7709375 5.2734375 4.296875 C7.09276893 6.09150963 7.92026058 7.70813932 9 10 C5.35448884 13.77019977 1.69202776 17.52282367 -1.98632812 21.26098633 C-3.23220177 22.53182254 -4.47353001 23.80713305 -5.70996094 25.0871582 C-20.61338499 40.50221031 -20.61338499 40.50221031 -31.1015625 42.62890625 C-37.43120828 42.46233662 -41.60939939 41.39408187 -47 38 C-47.33 37.34 -47.66 36.68 -48 36 C-47.29875 35.90203125 -46.5975 35.8040625 -45.875 35.703125 C-33.02325242 33.67757783 -26.14518532 27.92962555 -17 19 C-16.31115723 18.33162109 -15.62231445 17.66324219 -14.91259766 16.97460938 C-12.70387883 14.82505702 -10.50598632 12.66508851 -8.3125 10.5 C-7.60480469 9.80551758 -6.89710937 9.11103516 -6.16796875 8.39550781 C-5.51054688 7.73905273 -4.853125 7.08259766 -4.17578125 6.40625 C-3.58708252 5.82166016 -2.99838379 5.23707031 -2.3918457 4.63476562 C-0.77149024 2.93817445 -0.77149024 2.93817445 0 0 Z " fill="#638992" transform="translate(71,455)"/>
<path d="M0 0 C1.67180274 0.94934513 3.33733936 1.90973313 5 2.875 C5.928125 3.40867187 6.85625 3.94234375 7.8125 4.4921875 C8.534375 4.98976563 9.25625 5.48734375 10 6 C10 6.66 10 7.32 10 8 C5.99910548 9.94090672 1.99720095 11.87971108 -2.00561523 13.81665039 C-3.36461253 14.47461478 -4.7233417 15.13313327 -6.08178711 15.79223633 C-8.04469131 16.74449356 -10.00858037 17.69469345 -11.97265625 18.64453125 C-13.15093994 19.21534424 -14.32922363 19.78615723 -15.54321289 20.37426758 C-25.37888572 25 -25.37888572 25 -28.125 25 C-30.97435239 23.48034539 -32.88403575 21.40984817 -35 19 C-35 18.34 -35 17.68 -35 17 C-33.97527588 16.52054932 -32.95055176 16.04109863 -31.89477539 15.54711914 C-28.10501318 13.77326041 -24.31658685 11.99656478 -20.52856445 10.21899414 C-18.88667715 9.44900898 -17.24442514 8.67980102 -15.60180664 7.91137695 C-13.24530002 6.80883042 -10.89010504 5.7035255 -8.53515625 4.59765625 C-7.79660904 4.25283707 -7.05806183 3.90801788 -6.2971344 3.55274963 C-2.91726038 2.13054686 -2.91726038 2.13054686 0 0 Z " fill="#648B95" transform="translate(252,282)"/>
<path d="M0 0 C2.5 1.5 2.5 1.5 5 4 C5.93783304 8.84547069 5.93783304 8.84547069 5 12 C1.07473574 17.47536862 -5.65872556 20.34978531 -12 22 C-19.84261966 23.09796675 -25.9549836 21.423175 -33 18 C-33 17.67 -33 17.34 -33 17 C-32.17757813 16.97421875 -31.35515625 16.9484375 -30.5078125 16.921875 C-19.64635433 16.37002262 -11.61888931 14.28662225 -3.5625 6.75 C-1.69741461 4.66110436 -0.66071413 2.7254458 0 0 Z " fill="#DC1D29" transform="translate(362,471)"/>
<path d="M0 0 C1.15518918 0.90484792 2.29885406 1.8244206 3.4375 2.75 C4.07558594 3.26046875 4.71367188 3.7709375 5.37109375 4.296875 C7.25912848 6.27093529 7.70835665 7.302299 8 10 C6.92016602 11.64746094 6.92016602 11.64746094 5.25390625 13.234375 C4.66416016 13.80800781 4.07441406 14.38164062 3.46679688 14.97265625 C2.83837891 15.55917969 2.20996094 16.14570313 1.5625 16.75 C0.93794922 17.35199219 0.31339844 17.95398438 -0.33007812 18.57421875 C-1.87578596 20.0609301 -3.4365232 21.5319865 -5 23 C-9.28359673 21.1144852 -11.15103592 18.64034299 -14 15 C-13.07316406 14.08476562 -12.14632812 13.16953125 -11.19140625 12.2265625 C-9.98163961 11.0261739 -8.77201135 9.82564583 -7.5625 8.625 C-6.95083984 8.02171875 -6.33917969 7.4184375 -5.70898438 6.796875 C-5.12568359 6.21679688 -4.54238281 5.63671875 -3.94140625 5.0390625 C-3.40201416 4.50490723 -2.86262207 3.97075195 -2.30688477 3.42041016 C-0.89153023 2.01347612 -0.89153023 2.01347612 0 0 Z " fill="#DD1D29" transform="translate(97,430)"/>
<path d="M0 0 C1.18383117 0.85163365 2.3466469 1.73252438 3.5 2.625 C4.1496875 3.11226563 4.799375 3.59953125 5.46875 4.1015625 C7 6 7 6 7.59375 8.8125 C6.74697173 13.3583623 4.33266733 15.33506696 1 18.375 C0.42765625 18.92027344 -0.1446875 19.46554687 -0.734375 20.02734375 C-2.14305539 21.36559012 -3.56982497 22.68474975 -5 24 C-6.12894876 23.06725891 -7.25300876 22.12859878 -8.375 21.1875 C-9.00148438 20.66542969 -9.62796875 20.14335937 -10.2734375 19.60546875 C-12 18 -12 18 -14 15 C-13.48050781 14.56429688 -12.96101563 14.12859375 -12.42578125 13.6796875 C-5.26757859 7.64604109 -5.26757859 7.64604109 0 0 Z " fill="#638993" transform="translate(122,404)"/>
</svg>
