<?xml version="1.0" encoding="UTF-8"?>
<svg version="1.1" xmlns="http://www.w3.org/2000/svg" width="512" height="512">
<path d="M0 0 C0.97549805 0.20898926 1.95099609 0.41797852 2.95605469 0.63330078 C43.5144837 9.61861488 80.98202841 29.02871532 111.25 57.4375 C113.72679294 59.74542069 116.25228742 61.97326209 118.8125 64.1875 C122.93105348 67.84105551 126.47910346 71.77640352 130 76 C130.73734375 76.84949219 131.4746875 77.69898437 132.234375 78.57421875 C143.96949769 92.27142405 153.74573815 106.97122242 162 123 C162.42023438 123.80920898 162.84046875 124.61841797 163.2734375 125.45214844 C173.61304935 145.57522635 180.57268481 166.83339379 185 189 C185.24556641 190.15798096 185.24556641 190.15798096 185.49609375 191.33935547 C191.35017327 219.98684999 190.32009601 253.54368832 184 282 C183.76394043 283.06734375 183.52788086 284.1346875 183.28466797 285.234375 C177.17178974 311.84569273 166.01513394 350.80112642 144.99609375 369.8125 C143 371 143 371 139.5625 370.75 C136.13629283 370.66034317 136.13629283 370.66034317 134.40234375 372.23046875 C132.26884098 374.82751808 130.90595132 376.74601764 131.1640625 380.1875 C131.31617188 380.93 131.46828125 381.6725 131.625 382.4375 C132.17304882 385.41624681 132.27663619 386.53588447 130.703125 389.17578125 C128.89105629 391.23178229 126.98570395 393.11276071 125 395 C124.21625 395.99 123.4325 396.98 122.625 398 C119.6574188 400.26101425 119.15439056 400.17001053 115.625 399.9375 C111.87450817 399.73018638 109.94776488 400.21024476 106.9375 402.5 C105.02047819 404.35137037 104.0939804 405.34848725 103.7109375 408.00390625 C103.74445313 408.68324219 103.77796875 409.36257813 103.8125 410.0625 C104 414 104 414 102.515625 416.36328125 C99.27929224 419.75540021 95.74899241 422.41067495 91.9375 425.125 C91.14384033 425.6919458 90.35018066 426.2588916 89.5324707 426.84301758 C60.83413646 447.01162395 29.12699507 459.57095982 -5 467 C-5.88864746 467.1964209 -6.77729492 467.3928418 -7.69287109 467.59521484 C-34.11566656 473.11206225 -66.66214094 472.75838738 -93 467 C-94.04865234 466.77957031 -95.09730469 466.55914062 -96.17773438 466.33203125 C-138.42842174 457.24224194 -177.77792979 438.31737186 -209.3203125 408.52734375 C-211.76635759 406.22035953 -214.26828598 404.00977574 -216.8125 401.8125 C-220.93105348 398.15894449 -224.47910346 394.22359648 -228 390 C-229.10601562 388.72576172 -229.10601562 388.72576172 -230.234375 387.42578125 C-257.56102949 355.53017975 -274.1174544 317.80400461 -283 277 C-283.1964209 276.11135254 -283.3928418 275.22270508 -283.59521484 274.30712891 C-289.52513255 245.90594409 -288.26497428 212.20812541 -282 184 C-281.76394043 182.93265625 -281.52788086 181.8653125 -281.28466797 180.765625 C-274.26017109 150.18573917 -261.52700842 120.41592422 -243 95 C-242.59571777 94.4416748 -242.19143555 93.88334961 -241.77490234 93.30810547 C-236.45747032 86.02640605 -230.69254615 79.28137814 -224.5234375 72.7109375 C-222.42580917 70.45744824 -220.4194089 68.16659836 -218.4375 65.8125 C-188.56025076 31.57668734 -141.60070908 9.5558396 -98 0 C-97.02756348 -0.21317871 -96.05512695 -0.42635742 -95.05322266 -0.64599609 C-64.61292431 -6.95416638 -30.34369448 -6.6107715 0 0 Z " fill="#261528" transform="translate(305,23)"/>
<path d="M0 0 C16.62766856 0.23953867 33.66198746 5.17395014 49.59375 9.68359375 C50.25044678 9.86864471 50.90714355 10.05369568 51.58374023 10.24435425 C60.77641761 12.85383916 69.76039132 15.87195662 78.71875 19.18359375 C78.69780273 20.19333252 78.67685547 21.20307129 78.65527344 22.2434082 C77.87954535 63.42246042 85.05371758 97.6731929 101.30467224 135.50457764 C110.55586729 157.11199331 118.51908718 179.11359101 123.46875 202.12109375 C123.65542236 202.97590332 123.84209473 203.83071289 124.03442383 204.71142578 C128.01730128 224.39510302 129.16704885 243.91808988 129 263.96264648 C128.96829346 267.80136684 128.95895578 271.63967602 128.953125 275.47851562 C128.94397246 277.94401543 128.93360235 280.40951109 128.921875 282.875 C128.91762512 284.01038712 128.91337524 285.14577423 128.90899658 286.31556702 C128.88226112 289.27416483 128.81994709 292.22668371 128.71875 295.18359375 C128.68590157 296.28374062 128.68590157 296.28374062 128.65238953 297.40611267 C128.50756836 299.28515625 128.50756836 299.28515625 127.71875 302.18359375 C125.63012695 303.81811523 125.63012695 303.81811523 122.89453125 304.8671875 C121.89502441 305.26147949 120.89551758 305.65577148 119.86572266 306.06201172 C118.82722168 306.43213379 117.7887207 306.80225586 116.71875 307.18359375 C115.76403809 307.53695801 114.80932617 307.89032227 113.82568359 308.25439453 C99.39493855 313.40595739 84.88262522 317.05359353 69.71875 319.18359375 C68.51782715 319.35874512 67.3169043 319.53389648 66.07958984 319.71435547 C56.52369167 321.05148566 47.11341181 321.58493538 37.46875 321.55859375 C36.37989502 321.55827652 36.37989502 321.55827652 35.26904297 321.55795288 C-17.05719631 321.40764744 -17.05719631 321.40764744 -27.28125 311.18359375 C-27.52418774 309.22573387 -27.70157297 307.25972061 -27.85375977 305.29272461 C-27.95374771 304.01540466 -28.05373566 302.73808472 -28.15675354 301.42205811 C-28.26257963 299.99755682 -28.36786317 298.57301515 -28.47265625 297.1484375 C-28.55427411 296.06006969 -28.55427411 296.06006969 -28.63754082 294.94971466 C-29.05724387 289.34138438 -29.45519369 283.73166162 -29.84375 278.12109375 C-29.90130463 277.29172428 -29.95885925 276.46235481 -30.01815796 275.60785294 C-33.8539158 219.9431269 -35.12739657 163.25263754 -26.67285156 107.93457031 C-26.23869888 104.88467475 -25.89251166 101.83156946 -25.5546875 98.76953125 C-14.36425821 0.80371445 -14.36425821 0.80371445 0 0 Z " fill="#E47D25" transform="translate(218.28125,157.81640625)"/>
<path d="M0 0 C2.01692597 0.00502529 4.03385316 0.00958638 6.05078125 0.01367188 C10.95055122 0.02459532 15.85026196 0.04180316 20.75 0.0625 C19.21140331 5.71659827 17.66605704 11.36863289 16.1015625 17.015625 C5.68469197 54.83476025 -0.43310634 93.06841948 -4.25 132.0625 C-4.36327637 133.20090332 -4.47655273 134.33930664 -4.59326172 135.51220703 C-6.83485393 158.34245192 -7.45510698 181.13078016 -7.4375 204.0625 C-7.43756042 205.28084534 -7.43762085 206.49919067 -7.43768311 207.75445557 C-7.41865357 234.8591453 -6.2143801 261.7894661 -3.85986328 288.79052734 C-3.31073759 295.23087673 -3.15101716 301.59954909 -3.25 308.0625 C-29.88651984 303.1389341 -56.11784904 282.20505694 -75.25 264.0625 C-76.55761261 262.95254976 -77.86986271 261.84803108 -79.1875 260.75 C-84.48491635 256.12699806 -89.19884295 250.94566034 -93.83105469 245.66748047 C-95.10511125 244.22638484 -96.4138062 242.81608926 -97.7265625 241.41015625 C-104.52388911 233.38931086 -104.98999467 225.12437299 -105.25 215.0625 C-105.28029297 213.92603027 -105.31058594 212.78956055 -105.34179688 211.61865234 C-105.84137426 188.33651855 -105.26396005 164.88390733 -100.25 142.0625 C-100.02183594 141.01078613 -99.79367188 139.95907227 -99.55859375 138.87548828 C-91.76470735 103.50436437 -77.51886734 71.82291052 -61.04150391 39.70703125 C-57.39213063 32.59035409 -53.90176512 25.4957802 -50.9375 18.0625 C-50.45023438 16.84175781 -49.96296875 15.62101563 -49.4609375 14.36328125 C-48.23324801 11.20557803 -48.23324801 11.20557803 -47.6015625 8.41796875 C-47.0625 6.25 -47.0625 6.25 -45.25 3.0625 C-41.64111869 1.61638798 -38.10485875 1.34435131 -34.25 1.0625 C-33.49992676 0.9792749 -32.74985352 0.8960498 -31.97705078 0.81030273 C-21.34328226 -0.28252207 -10.6752904 -0.04646004 0 0 Z " fill="#E47D25" transform="translate(180.25,155.9375)"/>
<path d="M0 0 C3.96981022 1.25936042 7.702246 2.70466195 11.45703125 4.50390625 C12.47804932 4.99221924 13.49906738 5.48053223 14.55102539 5.98364258 C15.62731201 6.50466553 16.70359863 7.02568848 17.8125 7.5625 C19.49363892 8.37593872 19.49363892 8.37593872 21.20874023 9.20581055 C24.47694642 10.79498138 27.74004548 12.39397768 31 14 C31.80501953 14.39638672 32.61003906 14.79277344 33.43945312 15.20117188 C57.90229306 27.37674061 80.57456551 43.11848316 102 60 C102.84691406 60.66386719 103.69382812 61.32773438 104.56640625 62.01171875 C110.92370017 67.04245053 117.10965556 72.27119394 123.27490234 77.53369141 C125.01628378 79.01384099 126.76694893 80.48235723 128.51953125 81.94921875 C134.9163145 87.3298142 141.01671233 92.86439482 146.86767578 98.8359375 C149.63390356 101.65559632 152.44793047 104.35585304 155.4375 106.9375 C156.05238281 107.47890625 156.66726563 108.0203125 157.30078125 108.578125 C158.84101148 109.86696133 160.47970811 111.03579567 162.125 112.1875 C164.82115179 116.23172768 163.69647715 118.77648724 162.82861328 123.41333008 C161.2692065 130.16325495 159.09806455 136.69623239 156.875 143.25 C156.5061821 144.34732956 156.5061821 144.34732956 156.12991333 145.46682739 C152.78149739 155.38989502 149.28508572 165.01847377 144.06396484 174.13525391 C142.8192064 176.31686588 141.62262983 178.52222365 140.42578125 180.73046875 C133.71124878 193.04227252 133.71124878 193.04227252 130.7265625 197.29296875 C128.51538237 200.75981904 128.54271583 202.96065647 129 207 C129.66 207.99 130.32 208.98 131 210 C130.55527344 210.47308594 130.11054688 210.94617188 129.65234375 211.43359375 C126.10506363 215.32725536 126.10506363 215.32725536 125.0703125 220.25390625 C125.23273438 220.99511719 125.39515625 221.73632812 125.5625 222.5 C126.15045064 225.46531629 126.27799881 226.53302919 124.70703125 229.171875 C122.89347527 231.22904298 120.98704702 233.11148423 119 235 C118.21625 235.99 117.4325 236.98 116.625 238 C113.64772526 240.2683998 113.21220423 240.15215623 109.6875 239.875 C106.54257486 239.65337776 105.32384501 239.78875011 102.640625 241.5390625 C100.67137166 243.29183763 98.80137075 245.07592007 97 247 C96.10667969 246.50886719 96.10667969 246.50886719 95.1953125 246.0078125 C92.65136579 244.83995085 90.77510045 244.70979169 88.0234375 245.21484375 C84.46135921 246.59704015 81.82879936 249.15839703 78.94140625 251.609375 C57.54411765 269 57.54411765 269 50 269 C49.99413376 268.3834404 49.98826752 267.7668808 49.98222351 267.13163757 C49.40460228 208.95606975 43.03257206 157.66298989 20.0533905 103.69117737 C11.39134682 83.34415058 2.79376876 63.10930793 0 41 C-0.12890625 40.10539062 -0.2578125 39.21078125 -0.390625 38.2890625 C-1.16543724 31.82549721 -1.09777642 25.3135965 -1.125 18.8125 C-1.12975342 17.87317627 -1.13450684 16.93385254 -1.1394043 15.96606445 C-1.12646878 10.55183089 -0.79311346 5.35666313 0 0 Z " fill="#E47D25" transform="translate(311,183)"/>
<path d="M0 0 C-0.93347358 1.75215106 -1.8719532 3.50163563 -2.8125 5.25 C-3.33457031 6.22453125 -3.85664063 7.1990625 -4.39453125 8.203125 C-6 11 -6 11 -7.7109375 13.1328125 C-9.36324089 15.1202035 -9.36324089 15.1202035 -8.8125 18.625 C-8.29877715 22.04919943 -8.29877715 22.04919943 -6 24 C-3.21893503 24.92119564 -3.21893503 24.92119564 0 24 C3.86346915 20.40457058 6.54530982 15.82455911 9.1640625 11.28515625 C9.54135498 10.64980957 9.91864746 10.01446289 10.30737305 9.35986328 C11.04996245 8.09670731 11.76612285 6.81756727 12.45239258 5.52294922 C13.49609375 3.74609375 13.49609375 3.74609375 16 1 C19.09452585 0.54421712 20.97921638 0.56801455 24 1 C24.88776123 1.10981201 25.77552246 1.21962402 26.69018555 1.33276367 C59.24783854 5.86268851 91.68845843 17.53891822 119 36 C116.15950996 39.07940977 113.43194307 41.02532662 109.75 43 C77.28905997 61.54346026 51.71304925 91.58409533 41.55859375 127.82421875 C41.37425781 128.54222656 41.18992187 129.26023438 41 130 C34.26783241 128.60547957 27.80121729 126.75976085 21.25 124.6875 C1.70667102 118.66005956 -17.75024313 114.83848096 -38 112 C-39.36196451 108.29974259 -38.62115287 106.18723535 -37.21875 102.57421875 C-36.7956958 101.48189941 -36.3726416 100.38958008 -35.93676758 99.26416016 C-35.46263428 98.0838623 -34.98850098 96.90356445 -34.5 95.6875 C-34.01748779 94.46595215 -33.53497559 93.2444043 -33.0378418 91.98583984 C-28.53600263 80.75453056 -23.27632092 69.90480909 -17.77734375 59.1315918 C-17.45960495 58.49874771 -17.14186615 57.86590363 -16.8144989 57.21388245 C-15.95283464 55.49885743 -15.07807786 53.79042801 -14.20239258 52.08251953 C-12.91578536 48.78410274 -12.67588252 46.50702046 -13 43 C-14.60538861 40.32435231 -15.79113047 40.05569854 -18.8125 39.25 C-23.27212774 40.29932417 -24.04341739 42.54939059 -26.4230957 46.29345703 C-29.15993389 50.99086965 -31.4420586 55.86512221 -33.6875 60.8125 C-34.19716309 61.9252832 -34.70682617 63.03806641 -35.23193359 64.18457031 C-41.83532536 78.79953478 -48.00848253 93.75738985 -53 109 C-53.6034021 109.01030746 -54.2068042 109.02061493 -54.82849121 109.03123474 C-61.18929085 109.14060626 -67.54998519 109.2550733 -73.91064453 109.37231445 C-76.27487963 109.41525084 -78.63913759 109.45694869 -81.00341797 109.49731445 C-94.02677863 109.72052482 -107.01023144 109.99366337 -120 111 C-119.92289795 109.8651416 -119.8457959 108.7302832 -119.76635742 107.56103516 C-118.43305211 87.52768979 -118.11766295 68.58285324 -123 49 C-123.31194109 47.69809451 -123.62319166 46.39602328 -123.93359375 45.09375 C-124.59442552 42.38718544 -125.2780841 39.69077746 -126 37 C-116.35850284 30.49198942 -106.56113151 24.87918972 -96 20 C-95.28247559 19.66613281 -94.56495117 19.33226563 -93.82568359 18.98828125 C-63.97688363 5.28159677 -32.68210131 -0.57505164 0 0 Z " fill="#E37D25" transform="translate(259,33)"/>
<path d="M0 0 C2.02698646 1.68589357 3.91977941 3.36499324 5.8125 5.1875 C6.88069836 6.1948722 7.94970824 7.20138459 9.01953125 8.20703125 C9.79031006 8.935271 9.79031006 8.935271 10.57666016 9.67822266 C12.33228977 11.30857921 14.15872257 12.8425322 16 14.375 C51.50374099 45.31186974 75.00781296 94.05837672 82 140 C82.10151367 140.66080566 82.20302734 141.32161133 82.30761719 142.00244141 C85.10553946 161.08038773 84.90715266 180.84727132 83 200 C79.97022571 198.64768813 77.91527387 197.14519457 75.609375 194.76953125 C74.98667725 194.1350708 74.36397949 193.50061035 73.72241211 192.84692383 C73.07151611 192.17556396 72.42062012 191.5042041 71.75 190.8125 C70.39365875 189.43579181 69.03560775 188.06076579 67.67578125 186.6875 C66.76566284 185.76130859 66.76566284 185.76130859 65.8371582 184.81640625 C62.69521018 181.70994867 59.38469559 178.83616297 56 176 C54.98965391 175.12772649 53.98067036 174.25387359 52.97265625 173.37890625 C24.26596564 148.5028047 -6.55700104 126.11011377 -40 108 C-40.85754883 107.53013672 -41.71509766 107.06027344 -42.59863281 106.57617188 C-55.41252358 99.57638762 -68.48602592 93.5227066 -82 88 C-77.23221176 57.05522056 -55.35604942 31.62826986 -30.9140625 13.453125 C-25.69349846 9.70491815 -20.28762728 6.32035336 -14.75 3.0625 C-13.85716309 2.52407471 -12.96432617 1.98564941 -12.04443359 1.4309082 C-10.77720459 0.70907349 -10.77720459 0.70907349 -9.484375 -0.02734375 C-8.73897461 -0.45781006 -7.99357422 -0.88827637 -7.22558594 -1.33178711 C-4.16330572 -2.25121021 -2.77625306 -1.47169409 0 0 Z " fill="#E37D25" transform="translate(395,81)"/>
<path d="M0 0 C-0.67100958 4.69706709 -2.49135681 8.77991446 -4.4375 13.0625 C-4.81801514 13.90756104 -5.19853027 14.75262207 -5.59057617 15.62329102 C-8.32099664 21.58605885 -11.21308779 27.45710776 -14.1796875 33.3046875 C-14.55292145 34.04041992 -14.9261554 34.77615234 -15.31069946 35.53417969 C-15.88079239 36.65759766 -15.88079239 36.65759766 -16.46240234 37.80371094 C-25.14679433 54.91871108 -33.12730527 72.06963035 -40 90 C-40.42925781 91.10698242 -40.42925781 91.10698242 -40.8671875 92.23632812 C-42.46798319 96.43196199 -43.80482091 100.67463541 -45 105 C-45.26619141 105.95567871 -45.53238281 106.91135742 -45.80664062 107.89599609 C-54.27676608 138.81010866 -56.92643943 169.09695554 -58 201 C-70.577242 184.91194649 -77.03547812 161.75700267 -81 142 C-81.20834473 140.97712891 -81.20834473 140.97712891 -81.42089844 139.93359375 C-82.3547753 135.30156453 -83.23264726 130.66268922 -84 126 C-84.25704712 124.52164673 -84.25704712 124.52164673 -84.51928711 123.01342773 C-86.05755731 113.44265511 -86.35662503 104.10215333 -86.3125 94.4375 C-86.31076279 93.25469955 -86.31076279 93.25469955 -86.30899048 92.04800415 C-86.27255457 79.47252563 -85.42634779 67.36079973 -83 55 C-82.7556556 53.62147432 -82.51340112 52.24257625 -82.2734375 50.86328125 C-81.15526588 44.78706292 -79.79015441 38.77940752 -78.1875 32.8125 C-77.91292969 31.78769531 -77.63835937 30.76289063 -77.35546875 29.70703125 C-71.89020856 18.79226091 -49.05902223 13.32710443 -38.359375 9.64453125 C-9.15273973 0 -9.15273973 0 0 0 Z " fill="#E37D25" transform="translate(119,162)"/>
<path d="M0 0 C0.99 0.495 0.99 0.495 2 1 C2.78293506 3.75356784 3.45552861 6.45747004 4.0625 9.25 C4.23587891 10.01441406 4.40925781 10.77882813 4.58789062 11.56640625 C5.07072547 13.708639 5.54344169 15.85201602 6 18 C6.18014648 18.78479736 6.36029297 19.56959473 6.54589844 20.37817383 C7.46244546 25.67000094 7.1906387 31.0811344 7.1875 36.4375 C7.18741943 37.69618896 7.18733887 38.95487793 7.18725586 40.25170898 C7.12952523 49.63992461 6.99733607 59.00799178 4 68 C1.93164062 68.71679688 1.93164062 68.71679688 -0.84375 69.21875 C-1.88982422 69.42314697 -2.93589844 69.62754395 -4.01367188 69.83813477 C-5.16416016 70.05655029 -6.31464844 70.27496582 -7.5 70.5 C-18.77426698 72.81410301 -29.59775555 75.89175224 -40.5 79.5625 C-41.19456299 79.79388672 -41.88912598 80.02527344 -42.60473633 80.26367188 C-50.24468009 82.81906702 -57.67873455 85.58312938 -64.94335938 89.09741211 C-67 90 -67 90 -69 90 C-67.02895314 83.24604189 -64.26033259 77.30703226 -60.8125 71.1875 C-60.07785522 69.8715686 -60.07785522 69.8715686 -59.32836914 68.52905273 C-45.66138304 44.29603093 -27.71627944 22.38624503 -6 5 C-3.99193417 3.3426712 -1.99576778 1.67212976 0 0 Z " fill="#E27C25" transform="translate(120,79)"/>
<path d="M0 0 C22.98686389 21.10208888 36.49286041 51.97853862 46 81 C46.33 81.99 46.66 82.98 47 84 C47.87222731 91.89294225 47.87222731 91.89294225 45.375 95.0625 C42.34719037 96.25768801 40.2283768 96.41213321 37 96 C33.95317391 93.6974041 33.176481 91.1227598 32.08984375 87.5390625 C31.74526123 86.43820313 31.40067871 85.33734375 31.0456543 84.203125 C30.67996338 83.02234375 30.31427246 81.8415625 29.9375 80.625 C22.29687071 56.96369638 11.34181113 34.70770608 -5.25537109 15.98095703 C-8.57131579 12.11328938 -9.88502285 9.28256149 -10 4 C-7.35056658 -0.13311614 -4.75603111 -0.87355673 0 0 Z " fill="#271628" transform="translate(415,115)"/>
<path d="M0 0 C2.875 2.0625 2.875 2.0625 5 5 C5.27732798 8.74392774 4.88123892 10.90817931 2.49609375 13.86328125 C0.72314534 15.65154671 -1.12675043 17.31823816 -3 19 C-3.639375 19.804375 -4.27875 20.60875 -4.9375 21.4375 C-7.23286275 23.17641118 -8.24502977 23.36783842 -11.0625 23.5625 C-15 23 -15 23 -17.0625 20.875 C-18.22087148 17.32266079 -17.98100812 15.60144873 -17 12 C-14.78515625 9.04296875 -14.78515625 9.04296875 -12.0625 6.1875 C-11.16660156 5.23230469 -10.27070313 4.27710938 -9.34765625 3.29296875 C-6.19395025 0.21272678 -4.38916127 -0.61244111 0 0 Z " fill="#271528" transform="translate(432,400)"/>
</svg>
