<?xml version="1.0" encoding="UTF-8"?>
<svg version="1.1" xmlns="http://www.w3.org/2000/svg" width="512" height="512">
<path d="M0 0 C1.95476882 1.61824944 3.85790871 3.30063914 5.70806885 5.03752136 C6.22063555 5.51683678 6.73320225 5.99615219 7.26130128 6.48999232 C12.80266567 11.69831119 18.21601382 17.03799212 23.60839844 22.3996582 C24.7103214 23.49200642 25.81240256 24.58419508 26.91462708 25.67623901 C30.48329706 29.21398182 34.04683459 32.75686727 37.609375 36.30078125 C38.524951 37.21141126 38.524951 37.21141126 39.45902348 38.14043784 C45.23270043 43.8833887 51.00433967 49.62838049 56.77119064 55.37818623 C64.09440085 62.67947665 71.42751892 69.97049321 78.77440429 77.2479623 C83.97172283 82.39786024 89.15733094 87.55937035 94.33461213 92.72941083 C97.4136023 95.80347892 100.49730065 98.87242235 103.59380341 101.9288578 C106.50633171 104.80417705 109.40390894 107.69379848 112.29129601 110.59435654 C113.3437566 111.64676378 114.40123042 112.69418932 115.46443367 113.73574257 C129.07095289 127.08017773 137.95242697 143.55856231 138.25 163 C137.94543433 192.74591391 119.28676779 210.18125114 99.60086775 229.70331407 C96.93153759 232.35366945 94.27091194 235.01273648 91.60928345 237.67082214 C86.58656981 242.68427559 81.55627097 247.69004379 76.52308047 252.69297665 C70.78538576 258.39693775 65.0563834 264.10959642 59.32803226 269.82293856 C47.56154809 281.55821051 35.78439964 293.28271801 24 305 C24.93013916 304.52224121 25.86027832 304.04448242 26.81860352 303.55224609 C28.06775008 302.91740505 29.31702454 302.28281563 30.56640625 301.6484375 C31.17601196 301.33447021 31.78561768 301.02050293 32.41369629 300.69702148 C49.9490664 291.82789214 69.20146745 290.75389789 88 296 C107.02414571 302.38229404 121.70837416 315.32968099 131 333 C139.41965798 351.44204274 141.04952836 371.80300616 134 391 C129.63890127 402.21921356 123.62254547 410.68403392 115 419 C114.05060547 419.99580078 114.05060547 419.99580078 113.08203125 421.01171875 C100.87139638 433.00671327 82.20589687 438.28310581 65.5 438.5 C47.41057007 438.28299978 30.59228411 432.11141269 17 420 C16.33742188 419.43023437 15.67484375 418.86046875 14.9921875 418.2734375 C1.38259957 405.73126823 -6.07177603 387.80185722 -7.21875 369.51171875 C-7.5546325 356.03443347 -5.21370185 343.96995325 1 332 C1.7712068 330.4376843 2.54207684 328.87520229 3.3125 327.3125 C3.869375 326.219375 4.42625 325.12625 5 324 C4.61070312 324.42410156 4.22140625 324.84820312 3.8203125 325.28515625 C-7.70886733 337.37219962 -23.14000146 345.93209222 -40 347 C-40.72316406 347.05285156 -41.44632812 347.10570312 -42.19140625 347.16015625 C-54.73659919 347.63550952 -66.97029584 343.63713552 -78.68662071 339.57793427 C-80.82398693 338.83781295 -82.96528612 338.11020039 -85.10786438 337.38531494 C-90.41134188 335.5884776 -95.70818498 333.77243016 -101.00457764 331.95483398 C-105.52005976 330.40582672 -110.03822952 328.86522534 -114.56055641 327.33631134 C-116.66628328 326.62056984 -118.76749081 325.89253348 -120.86882019 325.16400146 C-122.15411179 324.72816413 -123.43960806 324.29292974 -124.7253418 323.85839844 C-126.40287788 323.28239899 -126.40287788 323.28239899 -128.11430359 322.69476318 C-131.1456349 321.96493679 -132.14863149 321.94644812 -135 323 C-136.99152586 324.52747921 -136.99152586 324.52747921 -138.92900085 326.5144043 C-139.69874237 327.26846054 -140.46848389 328.02251678 -141.2615509 328.79942322 C-142.51399849 330.04919701 -142.51399849 330.04919701 -143.79174805 331.32421875 C-144.67830078 332.19748306 -145.56485352 333.07074738 -146.47827148 333.97047424 C-148.90770144 336.3678183 -151.33000566 338.77189934 -153.7481916 341.18055725 C-155.26038571 342.68617276 -156.77444553 344.1898864 -158.28913307 345.69299316 C-163.57643274 350.94055459 -168.854818 356.19692113 -174.1262207 361.46044922 C-179.03442798 366.36079043 -183.96291674 371.24006717 -188.90105981 376.11022282 C-193.14379272 380.29657628 -197.37094099 384.49825451 -201.58659393 388.71187496 C-204.10291655 391.2263594 -206.62518898 393.73406859 -209.16370201 396.22616577 C-211.99707806 399.00882526 -214.79781529 401.82299229 -217.59643555 404.640625 C-218.4374733 405.45761368 -219.27851105 406.27460236 -220.14503479 407.11634827 C-224.56064444 411.62089162 -226.93093577 414.68010091 -226.98093891 421.12072754 C-227.02697311 425.65933526 -230.46997467 429.3794893 -233.453125 432.5390625 C-238.30519612 436.9059265 -243.38209943 438.53822888 -249.88825989 438.29852295 C-259.22613274 436.97848867 -265.24659811 430.47308374 -271.58203125 424.046875 C-272.56769455 423.06204238 -273.5541759 422.07802789 -274.54142761 421.0947876 C-276.59746326 419.04159462 -278.64453445 416.97998684 -280.68530273 414.91162109 C-283.2868523 412.2759692 -285.90799307 409.6608886 -288.53596973 407.05161667 C-290.57247938 405.02573145 -292.59904443 402.9901253 -294.62274742 400.95145416 C-296.04904581 399.51753664 -297.48279288 398.09104045 -298.91670227 396.66473389 C-304.40891099 391.07273375 -309.07846124 386.04135911 -310.53125 378.09375 C-310.44392313 370.84561986 -309.3829194 365.65127598 -304.375 360.24609375 C-300.4764352 356.8754596 -297.44691115 355.78230086 -292.33172607 355.37796021 C-284.91303715 354.23562095 -281.25738444 350.61549393 -276.19238281 345.32763672 C-274.8437616 343.9812059 -274.8437616 343.9812059 -273.46789551 342.60757446 C-271.0243028 340.16682905 -268.61259551 337.69669786 -266.20579624 335.21973562 C-263.67752787 332.62858005 -261.12054586 330.06606878 -258.56658936 327.50027466 C-253.74421391 322.64692657 -248.94787868 317.76868001 -244.16057277 312.88076317 C-238.7051668 307.31324156 -233.22103753 301.7743862 -227.73441553 296.23765159 C-216.45754771 284.8565045 -205.2169468 273.44022704 -194 262 C-195.55236005 256.19650734 -197.10688836 250.41676106 -199.03710938 244.72509766 C-199.40759399 243.62670563 -199.77807861 242.5283136 -200.15979004 241.39663696 C-200.55049683 240.24738739 -200.94120361 239.09813782 -201.34375 237.9140625 C-201.97102952 236.05105096 -202.59830148 234.18803684 -203.22515106 232.3248806 C-204.75149561 227.79121002 -206.28445178 223.25978124 -207.82080078 218.72949219 C-208.6881697 216.17100289 -209.55213967 213.6114094 -210.41271973 211.05062866 C-211.21669408 208.65908711 -212.02552801 206.26917132 -212.84020996 203.8812561 C-220.00511937 182.51721327 -221.83634584 163.67264813 -212.4375 142.75 C-210.07328802 138.45495342 -207.39015812 135.00363319 -204.05224609 131.41877747 C-203.33153962 130.64388355 -203.33153962 130.64388355 -202.59627342 129.8533352 C-197.09141668 123.96911221 -191.41694733 118.25344719 -185.7265625 112.54956055 C-184.54065646 111.3573681 -183.35493198 110.16499503 -182.16937256 108.97245789 C-178.3247354 105.10706441 -174.47502427 101.24674529 -170.625 97.38671875 C-169.28945935 96.0471221 -167.95394932 94.70749493 -166.61846924 93.36783791 C-160.34889212 87.07928439 -154.07695737 80.79309417 -147.80207634 74.50983304 C-140.59280389 67.29076797 -133.39191351 60.06347338 -126.19792366 52.82917947 C-120.60888681 47.20991944 -115.01213523 41.59841783 -109.40962029 35.99259597 C-106.07504366 32.65567936 -102.74379232 29.3156019 -99.42071533 25.96722984 C-96.29724172 22.82035628 -93.16423702 19.68328535 -90.02393341 16.5532093 C-88.88011874 15.40988693 -87.73965759 14.26319703 -86.60301971 13.11273956 C-77.93507334 4.34541071 -69.11271012 -3.20012058 -57.125 -6.875 C-55.27261719 -7.45894531 -55.27261719 -7.45894531 -53.3828125 -8.0546875 C-35.33133078 -13.09909694 -15.75081178 -10.16536908 0 0 Z " fill="#EED261" transform="translate(342,42)"/>
<path d="M0 0 C1.95476882 1.61824944 3.85790871 3.30063914 5.70806885 5.03752136 C6.22063555 5.51683678 6.73320225 5.99615219 7.26130128 6.48999232 C12.80266567 11.69831119 18.21601382 17.03799212 23.60839844 22.3996582 C24.7103214 23.49200642 25.81240256 24.58419508 26.91462708 25.67623901 C30.48329706 29.21398182 34.04683459 32.75686727 37.609375 36.30078125 C38.524951 37.21141126 38.524951 37.21141126 39.45902348 38.14043784 C45.23270043 43.8833887 51.00433967 49.62838049 56.77119064 55.37818623 C64.09440085 62.67947665 71.42751892 69.97049321 78.77440429 77.2479623 C83.97172283 82.39786024 89.15733094 87.55937035 94.33461213 92.72941083 C97.4136023 95.80347892 100.49730065 98.87242235 103.59380341 101.9288578 C106.50633171 104.80417705 109.40390894 107.69379848 112.29129601 110.59435654 C113.3437566 111.64676378 114.40123042 112.69418932 115.46443367 113.73574257 C129.07095289 127.08017773 137.95242697 143.55856231 138.25 163 C137.94543433 192.74591391 119.28676779 210.18125114 99.60086775 229.70331407 C96.93153759 232.35366945 94.27091194 235.01273648 91.60928345 237.67082214 C86.58656981 242.68427559 81.55627097 247.69004379 76.52308047 252.69297665 C70.78538576 258.39693775 65.0563834 264.10959642 59.32803226 269.82293856 C47.56154809 281.55821051 35.78439964 293.28271801 24 305 C24.93013916 304.52224121 25.86027832 304.04448242 26.81860352 303.55224609 C28.06775008 302.91740505 29.31702454 302.28281563 30.56640625 301.6484375 C31.17601196 301.33447021 31.78561768 301.02050293 32.41369629 300.69702148 C49.9490664 291.82789214 69.20146745 290.75389789 88 296 C107.02414571 302.38229404 121.70837416 315.32968099 131 333 C139.41965798 351.44204274 141.04952836 371.80300616 134 391 C129.63890127 402.21921356 123.62254547 410.68403392 115 419 C114.05060547 419.99580078 114.05060547 419.99580078 113.08203125 421.01171875 C100.87139638 433.00671327 82.20589687 438.28310581 65.5 438.5 C47.41057007 438.28299978 30.59228411 432.11141269 17 420 C16.33742188 419.43023437 15.67484375 418.86046875 14.9921875 418.2734375 C1.38259957 405.73126823 -6.07177603 387.80185722 -7.21875 369.51171875 C-7.5546325 356.03443347 -5.21370185 343.96995325 1 332 C1.7712068 330.4376843 2.54207684 328.87520229 3.3125 327.3125 C3.869375 326.219375 4.42625 325.12625 5 324 C4.61070312 324.42410156 4.22140625 324.84820312 3.8203125 325.28515625 C-7.70886733 337.37219962 -23.14000146 345.93209222 -40 347 C-40.72316406 347.05285156 -41.44632812 347.10570312 -42.19140625 347.16015625 C-54.73659919 347.63550952 -66.97029584 343.63713552 -78.68662071 339.57793427 C-80.82398693 338.83781295 -82.96528612 338.11020039 -85.10786438 337.38531494 C-90.41134188 335.5884776 -95.70818498 333.77243016 -101.00457764 331.95483398 C-105.52005976 330.40582672 -110.03822952 328.86522534 -114.56055641 327.33631134 C-116.66628328 326.62056984 -118.76749081 325.89253348 -120.86882019 325.16400146 C-122.15411179 324.72816413 -123.43960806 324.29292974 -124.7253418 323.85839844 C-126.40287788 323.28239899 -126.40287788 323.28239899 -128.11430359 322.69476318 C-131.1456349 321.96493679 -132.14863149 321.94644812 -135 323 C-136.99152586 324.52747921 -136.99152586 324.52747921 -138.92900085 326.5144043 C-139.69874237 327.26846054 -140.46848389 328.02251678 -141.2615509 328.79942322 C-142.51399849 330.04919701 -142.51399849 330.04919701 -143.79174805 331.32421875 C-144.67830078 332.19748306 -145.56485352 333.07074738 -146.47827148 333.97047424 C-148.90770144 336.3678183 -151.33000566 338.77189934 -153.7481916 341.18055725 C-155.26038571 342.68617276 -156.77444553 344.1898864 -158.28913307 345.69299316 C-163.57643274 350.94055459 -168.854818 356.19692113 -174.1262207 361.46044922 C-179.03442798 366.36079043 -183.96291674 371.24006717 -188.90105981 376.11022282 C-193.14379272 380.29657628 -197.37094099 384.49825451 -201.58659393 388.71187496 C-204.10291655 391.2263594 -206.62518898 393.73406859 -209.16370201 396.22616577 C-211.99707806 399.00882526 -214.79781529 401.82299229 -217.59643555 404.640625 C-218.4374733 405.45761368 -219.27851105 406.27460236 -220.14503479 407.11634827 C-224.56064444 411.62089162 -226.93093577 414.68010091 -226.98093891 421.12072754 C-227.02697311 425.65933526 -230.46997467 429.3794893 -233.453125 432.5390625 C-238.30519612 436.9059265 -243.38209943 438.53822888 -249.88825989 438.29852295 C-259.22613274 436.97848867 -265.24659811 430.47308374 -271.58203125 424.046875 C-272.56769455 423.06204238 -273.5541759 422.07802789 -274.54142761 421.0947876 C-276.59746326 419.04159462 -278.64453445 416.97998684 -280.68530273 414.91162109 C-283.2868523 412.2759692 -285.90799307 409.6608886 -288.53596973 407.05161667 C-290.57247938 405.02573145 -292.59904443 402.9901253 -294.62274742 400.95145416 C-296.04904581 399.51753664 -297.48279288 398.09104045 -298.91670227 396.66473389 C-304.40891099 391.07273375 -309.07846124 386.04135911 -310.53125 378.09375 C-310.44392313 370.84561986 -309.3829194 365.65127598 -304.375 360.24609375 C-300.4764352 356.8754596 -297.44691115 355.78230086 -292.33172607 355.37796021 C-284.91303715 354.23562095 -281.25738444 350.61549393 -276.19238281 345.32763672 C-274.8437616 343.9812059 -274.8437616 343.9812059 -273.46789551 342.60757446 C-271.0243028 340.16682905 -268.61259551 337.69669786 -266.20579624 335.21973562 C-263.67752787 332.62858005 -261.12054586 330.06606878 -258.56658936 327.50027466 C-253.74421391 322.64692657 -248.94787868 317.76868001 -244.16057277 312.88076317 C-238.7051668 307.31324156 -233.22103753 301.7743862 -227.73441553 296.23765159 C-216.45754771 284.8565045 -205.2169468 273.44022704 -194 262 C-195.55236005 256.19650734 -197.10688836 250.41676106 -199.03710938 244.72509766 C-199.40759399 243.62670563 -199.77807861 242.5283136 -200.15979004 241.39663696 C-200.55049683 240.24738739 -200.94120361 239.09813782 -201.34375 237.9140625 C-201.97102952 236.05105096 -202.59830148 234.18803684 -203.22515106 232.3248806 C-204.75149561 227.79121002 -206.28445178 223.25978124 -207.82080078 218.72949219 C-208.6881697 216.17100289 -209.55213967 213.6114094 -210.41271973 211.05062866 C-211.21669408 208.65908711 -212.02552801 206.26917132 -212.84020996 203.8812561 C-220.00511937 182.51721327 -221.83634584 163.67264813 -212.4375 142.75 C-210.07328802 138.45495342 -207.39015812 135.00363319 -204.05224609 131.41877747 C-203.33153962 130.64388355 -203.33153962 130.64388355 -202.59627342 129.8533352 C-197.09141668 123.96911221 -191.41694733 118.25344719 -185.7265625 112.54956055 C-184.54065646 111.3573681 -183.35493198 110.16499503 -182.16937256 108.97245789 C-178.3247354 105.10706441 -174.47502427 101.24674529 -170.625 97.38671875 C-169.28945935 96.0471221 -167.95394932 94.70749493 -166.61846924 93.36783791 C-160.34889212 87.07928439 -154.07695737 80.79309417 -147.80207634 74.50983304 C-140.59280389 67.29076797 -133.39191351 60.06347338 -126.19792366 52.82917947 C-120.60888681 47.20991944 -115.01213523 41.59841783 -109.40962029 35.99259597 C-106.07504366 32.65567936 -102.74379232 29.3156019 -99.42071533 25.96722984 C-96.29724172 22.82035628 -93.16423702 19.68328535 -90.02393341 16.5532093 C-88.88011874 15.40988693 -87.73965759 14.26319703 -86.60301971 13.11273956 C-77.93507334 4.34541071 -69.11271012 -3.20012058 -57.125 -6.875 C-55.27261719 -7.45894531 -55.27261719 -7.45894531 -53.3828125 -8.0546875 C-35.33133078 -13.09909694 -15.75081178 -10.16536908 0 0 Z M-69.0665741 19.45462036 C-69.63383247 19.98439771 -70.20109084 20.51417506 -70.78553885 21.06000626 C-76.62215826 26.53575939 -82.32289666 32.14571256 -87.99731445 37.78857422 C-89.12894241 38.91062494 -90.26072738 40.03251734 -91.39265442 41.15426636 C-95.05326693 44.78398643 -98.70877797 48.41881781 -102.36328125 52.0546875 C-102.98960315 52.67771208 -103.61592506 53.30073667 -104.26122642 53.94264078 C-110.18602775 59.83672269 -116.1087933 65.73284354 -122.02677631 71.6337719 C-129.54008337 79.1251512 -137.06331205 86.60625257 -144.60027534 94.07383335 C-149.93348884 99.35963668 -155.25500283 104.6570438 -160.5681836 109.9629823 C-163.72764044 113.11751646 -166.89181382 116.26692831 -170.0687809 119.4038353 C-173.05600201 122.35386484 -176.02830047 125.31818449 -178.99038506 128.29344559 C-180.07025965 129.3732668 -181.15515213 130.44810075 -182.24576569 131.51707458 C-192.63556121 141.71185868 -202.15751985 153.82634135 -202.37109375 169.00195312 C-202.37238281 169.84693359 -202.37367188 170.69191406 -202.375 171.5625 C-202.39949219 172.38041016 -202.42398438 173.19832031 -202.44921875 174.04101562 C-202.47214006 178.98055818 -201.77332948 183.2083173 -200.26733398 187.91650391 C-199.9043219 189.0602095 -199.54130981 190.2039151 -199.16729736 191.38227844 C-198.78208923 192.57612656 -198.3968811 193.76997467 -198 195 C-197.62945496 196.16536789 -197.25890991 197.33073578 -196.87713623 198.53141785 C-194.56058894 205.79789595 -192.19833708 213.04930337 -189.81997967 220.29575062 C-188.62915035 223.92508064 -187.44612103 227.55657369 -186.28051758 231.1940918 C-185.13916923 234.75515692 -183.97841707 238.30935661 -182.80420876 241.85971642 C-182.36489199 243.19895486 -181.93228456 244.54041594 -181.50696373 245.88416481 C-178.88899537 254.13605782 -176.15584398 259.93058173 -170 266 C-168.77960736 267.38301092 -167.56910193 268.7747977 -166.36767578 270.17431641 C-145.21442062 294.21237553 -127.32195832 309.02448991 -96.09375 316.66992188 C-90.87373749 317.9801861 -85.82455197 319.66863704 -80.75 321.453125 C-79.50308128 321.88671829 -79.50308128 321.88671829 -78.23097229 322.32907104 C-75.04215869 323.43855593 -71.85393479 324.54928329 -68.6725769 325.67999268 C-53.99555765 330.83684386 -39.73973061 332.60990318 -25 326 C-15.99119422 321.49872749 -9.33410015 314.92261255 -2.31762695 307.8828125 C-1.07708897 306.65262489 0.16426742 305.42326212 1.40637207 304.19465637 C4.75667405 300.87523579 8.09415035 297.54320624 11.42841315 294.20768356 C14.22300373 291.41392739 17.02328959 288.62591257 19.82337791 285.83766842 C26.43509459 279.25326694 33.03579994 272.65796579 39.63012695 266.05615234 C46.40950478 259.26953799 53.20894168 252.50350293 60.01832741 245.74700928 C65.88516222 239.9240893 71.73824095 234.08758051 77.58089858 228.24040222 C81.06123514 224.75775443 84.54656323 221.2805188 88.04566002 217.81671143 C91.33897853 214.55557645 94.61466935 211.27766971 97.87819672 207.98673058 C99.07052438 206.78998423 100.26870868 205.59903618 101.47346687 204.41480446 C112.0506146 194.0055898 121.08866045 181.75697116 121.38061523 166.27539062 C121.33952703 148.25374729 114.65833454 136.17576111 101.9420929 123.39997864 C100.89738827 122.36304719 99.85247479 121.32632613 98.80737305 120.28979492 C97.68874964 119.16573795 96.57097601 118.04083479 95.45397949 116.91516113 C92.44447482 113.88756921 89.42263464 110.87258913 86.39771247 107.86041045 C83.21865213 104.69155149 80.04944673 101.5128596 76.87861633 98.33576965 C71.55555706 93.00545569 66.22417123 87.6835796 60.88793945 82.36645508 C54.73592719 76.23621842 48.59847164 70.09169064 42.46835488 63.93956488 C37.18461313 58.63762026 31.89305268 53.34357387 26.59498245 48.05594712 C23.43946348 44.90663482 20.2866391 41.75475242 17.14087486 38.59569359 C14.18266127 35.62585037 11.21468969 32.66610481 8.23918915 29.7135849 C7.15466923 28.63431378 6.07346371 27.55169925 4.99601936 26.46536446 C-6.40439178 14.97965195 -19.02002739 6.38257038 -35.625 5.75 C-48.61418554 5.92552953 -59.7113094 10.62858506 -69.0665741 19.45462036 Z " fill="#2D3A53" transform="translate(342,42)"/>
<path d="M0 0 C11.6323368 7.61259962 20.3931071 19.40557014 23.9609375 32.93359375 C26.75566657 50.52935504 24.62859673 66.44984177 14.3515625 81.31640625 C5.90250005 92.39202507 -6.61057145 100.38514094 -20.4453125 102.671875 C-37.44882518 104.21514357 -51.46227837 101.97285625 -65.4453125 91.671875 C-66.16460937 91.14851563 -66.88390625 90.62515625 -67.625 90.0859375 C-77.72011977 82.03341006 -84.83171869 69.47604069 -86.4453125 56.671875 C-87.13389752 45.58291136 -87.6744644 34.7519697 -82.4453125 24.671875 C-82.05601562 23.78886719 -81.66671875 22.90585937 -81.265625 21.99609375 C-74.19294542 7.20205688 -61.25352297 -2.09997897 -46.12890625 -7.515625 C-30.16915809 -11.03590879 -14.00733367 -8.20139537 0 0 Z " fill="#D8D7D7" transform="translate(438.4453125,360.328125)"/>
<path d="M0 0 C14.14277084 12.05052594 24.92757087 28.40727675 26.74609375 47.33984375 C28.11552224 67.53525896 24.33780801 87.69257003 10.66552734 103.3671875 C8.43640257 105.7780469 6.10981653 108.06016444 3.74609375 110.33984375 C3.11316406 111.00371094 2.48023438 111.66757812 1.828125 112.3515625 C-10.38250987 124.34655702 -29.04800938 129.62294956 -45.75390625 129.83984375 C-63.84333618 129.62284353 -80.66162214 123.45125644 -94.25390625 111.33984375 C-95.24777344 110.48519531 -95.24777344 110.48519531 -96.26171875 109.61328125 C-109.87130668 97.07111198 -117.32568228 79.14170097 -118.47265625 60.8515625 C-118.92661897 42.63630838 -113.7421243 28.53136227 -104.25390625 13.33984375 C-103.78597656 12.50839844 -103.31804687 11.67695313 -102.8359375 10.8203125 C-101.15311884 8.18181904 -99.31240189 6.19970019 -97.06640625 4.02734375 C-96.35097656 3.32996094 -95.63554687 2.63257813 -94.8984375 1.9140625 C-94.35574219 1.39457031 -93.81304687 0.87507813 -93.25390625 0.33984375 C-92.26390625 0.66984375 -91.27390625 0.99984375 -90.25390625 1.33984375 C-89.89039063 0.44072266 -89.89039063 0.44072266 -89.51953125 -0.4765625 C-84.62403153 -8.92281047 -70.18504884 -12.07028053 -61.44140625 -14.4140625 C-39.75962514 -19.0278939 -17.25931849 -13.77536576 0 0 Z M-68.25390625 5.33984375 C-69.13691406 5.72914063 -70.01992188 6.1184375 -70.9296875 6.51953125 C-85.74802287 13.60382737 -94.96985534 26.52370334 -100.44921875 41.63671875 C-101.48519394 46.40421621 -101.54538199 50.91431374 -101.50390625 55.77734375 C-101.51164062 56.68033203 -101.519375 57.58332031 -101.52734375 58.51367188 C-101.48633237 72.67285047 -95.77725493 86.07862818 -86.22265625 96.5703125 C-72.74811546 109.19048929 -58.5234007 113.27629788 -40.49609375 112.75 C-26.79051973 111.95824373 -13.31395747 105.55836044 -3.94140625 95.46484375 C8.03364637 80.38514786 11.4851751 65.19194224 9.74609375 46.33984375 C8.17089989 37.14965945 4.20990783 29.80905772 -1.25390625 22.33984375 C-1.72699219 21.68242187 -2.20007813 21.025 -2.6875 20.34765625 C-10.62367541 10.23071875 -23.73193887 3.55129212 -36.25390625 1.33984375 C-47.2240666 0.34265662 -58.3094777 0.18107005 -68.25390625 5.33984375 Z " fill="#2F3D57" transform="translate(453.25390625,350.66015625)"/>
<path d="M0 0 C1.23657227 1.2578125 1.23657227 1.2578125 2.75390625 3.125 C8.42203798 9.7909698 14.73363132 15.83897236 20.9375 22 C22.20661373 23.2640885 23.47549589 24.52840956 24.74414062 25.79296875 C27.8267632 28.86466724 30.91250428 31.93320008 34 35 C32.60363479 38.15227151 30.96829025 40.27940382 28.53256226 42.70794678 C27.81460983 43.42864853 27.09665741 44.14935028 26.35694885 44.89189148 C25.56932663 45.67232315 24.78170441 46.45275482 23.97021484 47.25683594 C22.72619652 48.50129234 22.72619652 48.50129234 21.45704651 49.77088928 C18.71305719 52.51348464 15.96205027 55.2489268 13.2109375 57.984375 C11.30708432 59.88338767 9.40473405 61.7839031 7.50234985 63.68438721 C3.00504509 68.17547851 -1.49733311 72.66144767 -6.00155866 77.14559674 C-11.13000044 82.25167538 -16.25275698 87.36344159 -21.37504506 92.47569227 C-31.91038522 102.99013346 -42.45283982 113.49741465 -53 124 C-55.94313663 122.58449603 -58.07015776 121.19203665 -60.4074707 118.89892578 C-61.05106033 118.27132355 -61.69464996 117.64372131 -62.35774231 116.99710083 C-63.04019516 116.32001068 -63.72264801 115.64292053 -64.42578125 114.9453125 C-65.13276657 114.24735565 -65.83975189 113.5493988 -66.56816101 112.83029175 C-68.05768135 111.35525956 -69.5444223 109.87741612 -71.02856445 108.39697266 C-73.30942504 106.12805885 -75.60826901 103.87846249 -77.90820312 101.62890625 C-79.35270763 100.19386009 -80.79610605 98.75769951 -82.23828125 97.3203125 C-82.93085526 96.64727081 -83.62342926 95.97422913 -84.33699036 95.28079224 C-85.2787336 94.3299324 -85.2787336 94.3299324 -86.23950195 93.35986328 C-86.79813431 92.80630157 -87.35676666 92.25273987 -87.93232727 91.68240356 C-89 90 -89 90 -88.7774601 88.12896919 C-87.82555434 85.52230419 -86.58947404 84.21473063 -84.62831116 82.25408936 C-83.90620956 81.52497345 -83.18410797 80.79585754 -82.44012451 80.04464722 C-81.64269836 79.25486481 -80.84527222 78.4650824 -80.02368164 77.65136719 C-78.77007088 76.39228043 -78.77007088 76.39228043 -77.49113464 75.10775757 C-75.19914582 72.80905022 -72.90056574 70.51719844 -70.59856725 68.2285223 C-68.19239433 65.83366369 -65.7939374 63.4310996 -63.39439392 61.02960205 C-59.36520785 56.99953326 -55.3300836 52.97548681 -51.29125977 48.95507812 C-46.61731412 44.30232129 -41.95228243 39.6407736 -37.29203898 34.97429538 C-32.81221295 30.48878239 -28.32675034 26.00894946 -23.83846855 21.5318985 C-21.92646573 19.62454833 -20.01637033 17.71531727 -18.10774422 15.80458832 C-15.44529799 13.14177323 -12.77647869 10.48552172 -10.10571289 7.83105469 C-9.31031097 7.03317535 -8.51490906 6.23529602 -7.69540405 5.41323853 C-6.60802193 4.33648361 -6.60802193 4.33648361 -5.49867249 3.23797607 C-4.86762132 2.60897778 -4.23657015 1.97997948 -3.58639622 1.33192062 C-2 0 -2 0 0 0 Z " fill="#131313" transform="translate(160,317)"/>
<path d="M0 0 C4.27156178 2.91242849 8.08467543 6.87902629 9.75 11.875 C10.43668097 17.8262351 9.03037126 22.00221551 5.75 26.875 C3.25 29.25 3.25 29.25 0.75 30.875 C0.151875 31.2875 -0.44625 31.7 -1.0625 32.125 C-5.3637037 33.59969841 -9.26083574 33.74706114 -13.40625 31.9296875 C-18.49127069 28.91282821 -22.33297253 25.6260824 -24.25 19.875 C-25.07584696 13.89350842 -24.31797828 9.55233086 -20.79296875 4.60546875 C-15.09397011 -1.78606644 -7.92855226 -2.74449886 0 0 Z " fill="#2C3A54" transform="translate(438.25,415.125)"/>
<path d="M0 0 C4.54324262 2.33140082 8.05343556 5.599557 10.03125 10.3515625 C10.90533818 15.55775441 10.83670969 20.52043906 8.40625 25.2890625 C4.62557777 30.16413985 1.23093365 32.40122855 -4.84375 33.3515625 C-10.97453249 33.72033137 -15.00888479 31.94414517 -19.57421875 27.9453125 C-23.46955406 23.49350072 -23.64913727 18.91205423 -23.390625 13.16015625 C-22.6164453 8.0061266 -20.15723865 5.42410104 -16.40625 2.0390625 C-11.5579275 -1.31746846 -5.59962601 -1.84432127 0 0 Z " fill="#2C3A54" transform="translate(390.96875,414.6484375)"/>
<path d="M0 0 C4.28218555 2.24349287 6.75620389 5.02917283 8.859375 9.31640625 C10.46800803 15.3959297 10.06107872 19.76678647 6.859375 25.31640625 C3.43680409 29.26552653 0.53627361 31.96865205 -4.7265625 32.65234375 C-10.73481876 32.736493 -14.48334349 32.51931884 -19.140625 28.31640625 C-23.47519303 23.51323627 -24.45383807 19.90415292 -24.3515625 13.59375 C-23.89694492 8.68556392 -21.70818625 5.61919109 -18.078125 2.50390625 C-12.68714414 -1.51065397 -6.48856134 -2.07207707 0 0 Z " fill="#2C3A54" transform="translate(438.140625,368.68359375)"/>
<path d="M0 0 C7.30837965 6.595367 7.30837965 6.595367 7.765625 11.484375 C7.86342989 16.86364421 7.74286227 20.75398074 4.5625 25.3125 C0.35908918 29.53888028 -3.27695419 31.45067147 -9.25 31.625 C-14.1036481 31.56848008 -16.71919946 30.58814572 -20.4375 27.3125 C-25.04139916 22.0864523 -25.8007859 19.0050427 -25.7109375 12.140625 C-25.28738508 7.75988283 -24.19431179 5.77618661 -21.4375 2.3125 C-15.04839677 -2.77270461 -7.40694259 -3.63613546 0 0 Z " fill="#2B3953" transform="translate(393.4375,369.6875)"/>
<path d="M0 0 C4.40203436 0.23714779 6.46367448 1.95175211 9.53076172 4.98144531 C10.39450409 5.82612366 11.25824646 6.670802 12.14816284 7.54107666 C13.06606598 8.46080261 13.98396912 9.38052856 14.9296875 10.328125 C15.88856961 11.27922999 16.84789644 12.22988681 17.80764771 13.18011475 C19.81320686 15.17077383 21.81086823 17.16897717 23.80371094 19.17236328 C26.35939191 21.73965867 28.93713739 24.28344924 31.52168083 26.82164383 C33.50696935 28.77748972 35.47825245 30.74699224 37.44574356 32.72072601 C38.85023651 34.12369243 40.267818 35.51351619 41.68551636 36.90313721 C42.95276047 38.18906769 42.95276047 38.18906769 44.24560547 39.50097656 C44.99663544 40.25074768 45.74766541 41.0005188 46.52145386 41.77301025 C48 44 48 44 47.79714966 46.71868896 C47 49 47 49 46 50 C42.80310534 50.42653642 41.42106404 50.30137967 38.76628113 48.40119934 C38.0134938 47.65238998 37.26070648 46.90358063 36.48510742 46.13208008 C35.1943354 44.86494926 35.1943354 44.86494926 33.87748718 43.57221985 C32.9627211 42.64733261 32.04795502 41.72244537 31.10546875 40.76953125 C30.14927414 39.81670579 29.19233844 38.86462352 28.23469543 37.91325378 C26.23196604 35.91789102 24.23854652 33.91377746 22.2512207 31.90307617 C19.7046252 29.32799299 17.13623832 26.7760112 14.56045055 24.23016834 C12.58081568 22.26861213 10.61325827 20.29528841 8.64913368 18.31821251 C7.24876297 16.91289015 5.83832553 15.51762242 4.42778015 14.12251282 C3.58302628 13.26199814 2.7382724 12.40148346 1.86791992 11.51489258 C1.11911057 10.76210526 0.37030121 10.00931793 -0.40119934 9.23371887 C-2.31520887 6.5596149 -2.50417357 5.2207325 -2 2 C-1.34 1.34 -0.68 0.68 0 0 Z " fill="#E8BF7F" transform="translate(51,413)"/>
<path d="M0 0 C0.66 0.33 1.32 0.66 2 1 C0.68 1.99 -0.64 2.98 -2 4 C-1.34 2.68 -0.68 1.36 0 0 Z M-5 3 C-4.01 3.66 -3.02 4.32 -2 5 C-6.62 9.62 -11.24 14.24 -16 19 C-16 13.45550375 -12.55261988 10.43423956 -8.8125 6.6875 C-7.54646031 5.45339645 -6.27717852 4.22257232 -5 3 Z " fill="#434E65" transform="translate(365,348)"/>
<path d="M0 0 C0.66 0.66 1.32 1.32 2 2 C1.45730469 2.47050781 0.91460937 2.94101562 0.35546875 3.42578125 C-0.35996094 4.04839844 -1.07539063 4.67101562 -1.8125 5.3125 C-2.52019531 5.92738281 -3.22789062 6.54226563 -3.95703125 7.17578125 C-5.70136739 8.73334335 -7.36778041 10.32658875 -9 12 C-9 9 -9 9 -7.03125 6.73828125 C-5.77828125 5.53751953 -5.77828125 5.53751953 -4.5 4.3125 C-3.6646875 3.50425781 -2.829375 2.69601562 -1.96875 1.86328125 C-1.3190625 1.24839844 -0.669375 0.63351562 0 0 Z " fill="#777C76" transform="translate(360,351)"/>
<path d="M0 0 C0.66 0.33 1.32 0.66 2 1 C-0.97 3.97 -3.94 6.94 -7 10 C-7 6.04435836 -5.59478606 4.89133304 -3 2 C-2.01 1.34 -1.02 0.68 0 0 Z " fill="#58585D" transform="translate(42,399)"/>
</svg>
